<ttFont>
          <CharString index="0">
            540 137 rmoveto
            -85 callsubr
            -73 -59 -12 hhcurveto
            15 callgsubr
            0 -1 hhcurveto
            -3 -1 2 3 7 13 20 4 5 hvcurveto
            6 9 63 78 7 12 rrcurveto
            3 5 3 7 7 vvcurveto
            20 -34 23 -21 -16 -17 -9 -19 -18 vhcurveto
            -26 -23 -103 -108 -45 hhcurveto
            -9 -3 6 7 21 57 54 17 15 hvcurveto
            6 5 5 8 10 vvcurveto
            24 -32 27 -19 -21 -193 -107 -121 -28 30 -26 28 38 107 72 3 8 vhcurveto
            1 2 3 1 3 hhcurveto
            5 5 -2 -4 hvcurveto
            -8 -20 -15 -23 vvcurveto
            -38 20 -15 29 84 164 123 32 vhcurveto
            return
          </CharString>
          <CharString index="1">
            338 237 -105 callgsubr
            -67 callsubr
            vhcurveto
            return
          </CharString>
          <CharString index="2">
            688 759 rmoveto
            -45 callgsubr
            -69 82 -18 hvcurveto
            -84 callsubr
            -44 -7 -320 -135 -129 vvcurveto
            -104 callgsubr
            return
          </CharString>
          <CharString index="3">
            786 660 rmoveto
            -6 hlineto
            42 -24 -39 10 -39 -73 callgsubr
            274 437 499 143 -48 callsubr
            hvcurveto
            -505 -535 rmoveto
            -89 callgsubr
            return
          </CharString>
          <CharString index="4">
            hintmask 00111100
            99 -8 rmoveto
            -91 callsubr
            hintmask 01011100
            -101 callgsubr
            hintmask 10011100
            -98 callsubr
            vhcurveto
            hintmask 00111100
            -22 callgsubr
            return
          </CharString>
          <CharString index="5">
            566 714 rmoveto
            49 38 -33 -44 -48 -33 -59 -35 -40 hvcurveto
            -59 -66 -54 -61 -6 -6 rrcurveto
            -2 -2 0 -2 -2 vvcurveto
            -5 3 -5 6 3 3 1 3 4 vhcurveto
            18 14 386 288 34 30 rrcurveto
            10 11 15 5 14 hhcurveto
            20 18 -11 -21 -14 -8 -18 -19 -23 hvcurveto
            -42 -48 -353 -388 -50 -87 rrcurveto
            -2 -4 -2 -5 -4 vvcurveto
            -4 2 -2 4 3 4 1 3 5 vhcurveto
            10 22 69 55 26 hhcurveto
            7 5 -4 -7 -52 -169 -90 -73 -44 -31 24 55 -6 hvcurveto
            1 21 8 46 79 103 rrcurveto
            4 4 3 6 3 vvcurveto
            2 -1 1 -2 vhcurveto
            -33 -251 -228 -92 hhcurveto
            -54 -25 64 47 152 379 276 58 58 hvcurveto
            -17 callsubr
            3 2 vvcurveto
            2 -2 1 -3 vhcurveto
            -22 -68 -48 -17 hhcurveto
            -9 -10 4 10 -2 hvcurveto
            62 198 63 76 vhcurveto
            return
          </CharString>
          <CharString index="6">
            -43 -1 -45 0 -49 116 -27 0 hvcurveto
            30 -10 61 -50 0 vvcurveto
            4 2 6 2 1 7 rrcurveto
            57 -109 113 -65 vhcurveto
            endchar
          </CharString>
          <CharString index="7">
            -93 callgsubr
            -86 callgsubr
          </CharString>
          <CharString index="8">
            762 616 rmoveto
            49 -56 25 -78 -67 callgsubr
            74 106 82 43 54 vhcurveto
            2 -17 callsubr
            2 hhcurveto
            2 0 -1 -2 hvcurveto
            -7 -24 -43 -33 vvcurveto
            return
          </CharString>
          <CharString index="9">
            -32 -114 -114 -38 hhcurveto
            -6 -5 6 5 39 161 86 35 8 hvcurveto
            10 1 37 7 22 vvcurveto
            31 -49 28 -44 -176 -142 -165 -88 return
          </CharString>
          <CharString index="10">
            62 28 42 8 24 vvcurveto
            19 -21 5 -24 vhcurveto
            -37 -23 -10 -46 hhcurveto
            -14 -13 2 5 -1 hvcurveto
            37 1 272 97 84 hhcurveto
            15 10 -4 -7 hvcurveto
            return
          </CharString>
          <CharString index="11">
            hstem
            33 130 vstem
            -106 callsubr
            return
          </CharString>
          <CharString index="12">
            rmoveto
            -101 callsubr
          </CharString>
          <CharString index="13">
            -116 -111 -222 -215 -41 hhcurveto
            -6 -6 3 14 115 329 323 110 3 2 -1 -2 hvcurveto
            -16 -53 -28 -29 vvcurveto
            return
          </CharString>
          <CharString index="14">
            -95 callgsubr
            endchar
          </CharString>
          <CharString index="15">
            535 483 rmoveto
            -101 -122 -130 -123 -22 -27 -1 -7 rcurveline
            -5 1 -4 5 4 5 2 5 8 vhcurveto
            22 12 348 228 206 216 rrcurveto
            8 8 13 7 12 hhcurveto
            12 18 -6 -29 -31 -64 -62 -30 -36 hvcurveto
            -43 -49 -453 -507 -105 -145 rrcurveto
            -110 -80 -23 -66 -29 hhcurveto
            -33 -23 56 24 39 25 39 28 38 hvcurveto
            43 58 272 301 40 38 rrcurveto
            4 5 2 4 2 vvcurveto
            1 0 1 -2 -7 -12 -9 -6 -9 vhcurveto
            -37 -57 -223 -158 -95 hhcurveto
            -65 -28 63 43 24 6 23 8 17 hvcurveto
            34 76 280 217 45 83 rrcurveto
            1 2 1 2 1 vvcurveto
            2 -1 1 -3 -4 -6 -2 -3 -4 vhcurveto
            -5 -9 -101 -64 -16 hhcurveto
            -11 -13 11 15 52 161 97 115 64 49 -30 -83 -45 -37 -42 0 hvcurveto
            return
          </CharString>
          <CharString index="16">
            43 88 64 9 12 hvcurveto
            2 3 2 0 1 1 callgsubr
            12 callgsubr
            -14 -14 -12 -26 vvcurveto
            return
          </CharString>
          <CharString index="17">
            56 -42 hhcurveto
            -38 -40 -27 -34 -17 hvcurveto
            -1 vlineto
            -11 11 -9 10 -1 vhcurveto
            13 -1 13 19 hhcurveto
            31 -5 return
          </CharString>
          <CharString index="18">
            -88 callgsubr
            hintmask 10100100
            -2 callsubr
            hintmask 10110000
            -82 callsubr
            return
          </CharString>
          <CharString index="19">
            -20 hstemhm
            hintmask 10110000
            103 500 rmoveto
            -35 callsubr
            -601 -238 -119 -3 callgsubr
            hintmask 01110000
            -77 callgsubr
            379 197 -75 callsubr
            vhcurveto
            return
          </CharString>
          <CharString index="20">
            rmoveto
            -53 73 -100 24 -2 vhcurveto
            109 40 53 89 45 vvcurveto
            8 -1 12 -9 vhcurveto
            -31 -71 -94 -41 hhcurveto
            28 -18 -31 49 -34 hhcurveto
            -23 0 -22 0 hvcurveto
            endchar
          </CharString>
          <CharString index="21">
            -56 callgsubr
            -83 callgsubr
            return
          </CharString>
          <CharString index="22">
            -84 callgsubr
            -9 -16 return
          </CharString>
          <CharString index="23">
            21 -4 39 -3 9 -1 rrcurveto
            5 -1 7 -5 -4 vvcurveto
            -7 callsubr
            -4 -1 vhcurveto
            return
          </CharString>
          <CharString index="24">
            -31 callsubr
            hintmask 10110000
            -60 callsubr
            hintmask 10101000
            -89 callsubr
            return
          </CharString>
          <CharString index="25">
            -12 -114 -50 -49 vvcurveto
            -35 14 -38 55 -34 callgsubr
            vhcurveto
            -54 callsubr
            vhcurveto
            -51 callgsubr
            return
          </CharString>
          <CharString index="26">
            hstem
            104 443 rmoveto
            -66 60 -47 81 -1 vhcurveto
            -1 55 95 -3 61 hhcurveto
            28 14 -3 -16 2 hvcurveto
            -7 -34 -103 -93 -235 -15 -40 2 -73 -2 -32 29 rrcurveto
            -27 -11 -76 -30 -66 vvcurveto
            -101 91 -40 122 239 353 154 152 1 vhcurveto
            35 -15 73 -124 17 vhcurveto
            -125 17 -80 -15 24 vvcurveto
            38 252 82 78 14 9 -3 -6 vhcurveto
            -25 -49 -27 -26 vvcurveto
            -9 10 -11 10 49 122 167 39 70 -75 29 -104 -225 -356 -135 -142 vhcurveto
            return
          </CharString>
          <CharString index="27">
            hintmask 11011100
            -104 callsubr
            hintmask 10111100
            -85 callgsubr
            return
          </CharString>
          <CharString index="28">
            -54 callsubr
            -3 -4 -1 -2 -4 return
          </CharString>
          <CharString index="29">
            -76 callsubr
            41 -126 1 vhcurveto
            return
          </CharString>
          <CharString index="30">
            -69 callsubr
            14 14 11 5 4 vhcurveto
            return
          </CharString>
          <CharString index="31">
            -68 callsubr
            115 87 52 -41 return
          </CharString>
          <CharString index="32">
            69 31 rrcurveto
            49 22 56 27 42 vvcurveto
            75 -100 23 -69 vhcurveto
            -98 -118 -43 -80 hhcurveto
            -11 -6 2 5 7 39 24 7 7 hvcurveto
            6 6 6 10 9 vvcurveto
            9 -6 7 -15 -70 -174 -151 -60 return
          </CharString>
          <CharString index="33">
            12 -79 callgsubr
            33 40 467 652 -55 callsubr
            -465 -661 0 vvcurveto
            return
          </CharString>
          <CharString index="34">
            182 235 rmoveto
            65 115 423 49 hvcurveto
            2 -8 callgsubr
            vvcurveto
            14 -5 -26 12 -19 hhcurveto
            -4 -4 0 -2 -4 hvcurveto
            -27 -11 -159 -273 -134 vvcurveto
            -39 26 -43 42 vhcurveto
            return
          </CharString>
          <CharString index="35">
            vvcurveto
            15 -16 10 -13 -20 -15 -20 -14 -10 vhcurveto
            return
          </CharString>
          <CharString index="36">
            rmoveto
            -82 -49 -84 -12 -19 9 -30 40 53 70 56 49 20 -10 20 -31 hvcurveto
            return
          </CharString>
          <CharString index="37">
            61 -26 rmoveto
            -26 -24 21 30 95 146 149 93 17 hvcurveto
            43 2 -43 -10 -33 -173 -226 -61 hvcurveto
            return
          </CharString>
          <CharString index="38">
            -3 -51 callsubr
            10 -19 16 return
          </CharString>
          <CharString index="39">
            -23 -39 -19 -27 vvcurveto
            -10 10 -10 10 33 117 return
          </CharString>
          <CharString index="40">
            4 2 -2 -4 -59 -105 -104 -22 -10 -3 9 10 return
          </CharString>
          <CharString index="41">
            rmoveto
            -78 -331 0 -18 -39 hvcurveto
            -71 callgsubr
            return
          </CharString>
          <CharString index="42">
            20 70 rmoveto
            -25 31 -32 22 10 9 3 6 11 vhcurveto
            28 15 144 92 7 4 rrcurveto
            2 3 4 1 2 1 callgsubr
            -28 callsubr
            0 -1 0 -1 vvcurveto
            -14 -18 -25 -33 -33 vvcurveto
            -49 35 -18 40 58 71 38 35 6 -3 5 -11 vhcurveto
            -5 -18 -12 -8 hhcurveto
            return
          </CharString>
          <CharString index="43">
            rmoveto
            12 -12 12 -10 1 vhcurveto
            -11 3 -22 -23 return
          </CharString>
          <CharString index="44">
            -64 callsubr
            hhcurveto
            return
          </CharString>
          <CharString index="45">
            rmoveto
            -24 1 11 -6 12 hhcurveto
            8 8 2 3 6 hvcurveto
            0 136 170 59 vvcurveto
            31 -66 9 3 -11 -13 -7 -10 -4 vhcurveto
            return
          </CharString>
          <CharString index="46">
            rmoveto
            3 1 -1 -3 -41 -189 -181 -55 -5 -4 1 4 3 3 4 5 5 hvcurveto
            0 204 209 37 vhcurveto
            endchar
          </CharString>
          <CharString index="47">
            -28 callgsubr
            hintmask 01100010
            -48 callgsubr
            return
          </CharString>
          <CharString index="48">
            -3 -6 -2 -6 -6 vvcurveto
            return
          </CharString>
          <CharString index="49">
            -36 callgsubr
            hvcurveto
            -59 callgsubr
            -96 -125 -54 -71 return
          </CharString>
          <CharString index="50">
            99 -19 108 451 172 -125 125 return
          </CharString>
          <CharString index="51">
            -50 48 -8 rrcurveto
            85 24 74 0 hvcurveto
            return
          </CharString>
          <CharString index="52">
            30 -72 callsubr
            -13 -18 return
          </CharString>
          <CharString index="53">
            7 -5 7 -9 return
          </CharString>
          <CharString index="54">
            -72 -61 -59 -40 -21 17 -16 41 32 87 27 70 0 -1 39 -43 hvcurveto
            -50 -93 rmoveto
            -9 -5 4 6 hvcurveto
            return
          </CharString>
          <CharString index="55">
            -40 callsubr
            35 141 return
          </CharString>
          <CharString index="56">
            -4 -3 -7 -8 vvcurveto
            -12 return
          </CharString>
          <CharString index="57">
            rmoveto
            -48 -111 -65 -137 -45 vhcurveto
            94 87 82 68 73 hhcurveto
            5 20 callgsubr
            -959 -686 -38 callgsubr
            endchar
          </CharString>
          <CharString index="58">
            -95 hhcurveto
            -132 -146 -13 callgsubr
            return
          </CharString>
          <CharString index="59">
            22 -13 30 -35 -13 -17 -4 -11 -19 return
          </CharString>
          <CharString index="60">
            0 37 42 45 vvcurveto
            83 -49 30 -64 -115 -161 -97 -52 -15 13 -11 11 16 101 64 5 9 vhcurveto
            3 4 6 2 4 hhcurveto
            3 1 -1 -2 -1 -1 -2 -1 -2 hvcurveto
            -45 -83 return
          </CharString>
          <CharString index="61">
            rmoveto
            51 -58 40 -66 6 vhcurveto
            -4 1 -4 3 2 vvcurveto
            20 callsubr
            0 vvcurveto
            0 1 0 2 1 vhcurveto
            23 4 150 62 72 vvcurveto
            73 -109 29 -52 -102 -112 -64 -57 return
          </CharString>
          <CharString index="62">
            -23 111 -111 225 -189 -21 return
          </CharString>
          <CharString index="63">
            252 -21 274 -20 hstem
            151 261 -62 callsubr
            return
          </CharString>
          <CharString index="64">
            -26 20 -9 17 vhcurveto
            return
          </CharString>
          <CharString index="65">
            144 151 vvcurveto
            44 -32 18 -44 4 vhcurveto
            -136 -1 -123 -108 -120 -133 rrcurveto
            -16 -67 -69 -9 -62 hhcurveto
            -27 -4 -19 -11 hvcurveto
            16 -66 47 -13 49 -2 return
          </CharString>
          <CharString index="66">
            -49 callsubr
            -26 20 -9 17 vhcurveto
            return
          </CharString>
          <CharString index="67">
            hstemhm
            -1 231 116 240 return
          </CharString>
          <CharString index="68">
            -49 callgsubr
            hintmask 10111000
            -51 callgsubr
            -9 -4 5 8 return
          </CharString>
          <CharString index="69">
            rmoveto
            26 -51 10 16 vvcurveto
            1 22 33 40 39 43 rrcurveto
            7 6 1 2 5 vvcurveto
            return
          </CharString>
          <CharString index="70">
            -93 -48 33 -32 hhcurveto
            -51 -71 -56 -65 -100 201 -29 23 529 221 291 143 hvcurveto
            -632 -143 rmoveto
            -4 -5 -4 -9 -9 vvcurveto
            return
          </CharString>
          <CharString index="71">
            rmoveto
            -26 callgsubr
            23 -23 6 -13 hvcurveto
            return
          </CharString>
          <CharString index="72">
            -49 39 -42 70 vhcurveto
            98 201 60 14 hhcurveto
            3 3 -1 -2 hvcurveto
            -18 return
          </CharString>
          <CharString index="73">
            47 rmoveto
            -13 2 -3 3 4 return
          </CharString>
          <CharString index="74">
            213 rmoveto
            86 25 310 178 113 vvcurveto
            16 -15 50 -61 return
          </CharString>
          <CharString index="75">
            -163 -24 hvcurveto
            -116 -1 -114 -4 -10 -11 rrcurveto
            -71 callgsubr
            198 hlineto
            -13 -87 return
          </CharString>
          <CharString index="76">
            -27 callgsubr
            -45 157 return
          </CharString>
          <CharString index="77">
            61 -24 callgsubr
            -93 -17 -146 -149 -95 -4 callsubr
            return
          </CharString>
          <CharString index="78">
            hstemhm
            38 168 31 212 return
          </CharString>
          <CharString index="79">
            -22 callsubr
            -3 -4 hvcurveto
            return
          </CharString>
          <CharString index="80">
            25 133 42 42 vvcurveto
            return
          </CharString>
          <CharString index="81">
            -4 callgsubr
            -41 -86 -13 vvcurveto
            -17 12 -28 41 vhcurveto
            51 5 62 58 52 vvcurveto
            endchar
          </CharString>
          <CharString index="82">
            -62 callgsubr
            -93 callgsubr
            return
          </CharString>
          <CharString index="83">
            vvcurveto
            -24 10 -2 13 -3 vhcurveto
            17 9 17 15 2 hvcurveto
            return
          </CharString>
          <CharString index="84">
            195 -34 callsubr
            return
          </CharString>
          <CharString index="85">
            21 callgsubr
            -2 return
          </CharString>
          <CharString index="86">
            -11 12 -1 8 41 77 79 42 52 -43 9 -52 return
          </CharString>
          <CharString index="87">
            206 147 rmoveto
            -14 callsubr
            -28 -5 -35 -10 -21 vvcurveto
            return
          </CharString>
          <CharString index="88">
            -23 -163 -150 -54 hhcurveto
            -10 -11 4 15 158 352 302 97 hvcurveto
            endchar
          </CharString>
          <CharString index="89">
            5 -1 hvcurveto
            0 62 50 29 10 vhcurveto
            0 116 26 49 vvcurveto
            25 -21 21 -23 vhcurveto
            return
          </CharString>
          <CharString index="90">
            3 2 1 return
          </CharString>
          <CharString index="91">
            48 -13 rrcurveto
            -2 4 6 -1 6 hhcurveto
            15 14 8 23 16 -11 10 -4 3 hvcurveto
            return
          </CharString>
          <CharString index="92">
            -21 callsubr
            -107 -195 -140 -126 return
          </CharString>
          <CharString index="93">
            4 3 -5 -3 -20 -98 -23 -22 -3 hvcurveto
            return
          </CharString>
          <CharString index="94">
            170 -131 131 return
          </CharString>
          <CharString index="95">
            rrcurveto
            9 11 18 19 17 vvcurveto
            14 -15 13 -14 -18 -17 -18 -12 -10 vhcurveto
            return
          </CharString>
          <CharString index="96">
            -257 -337 -148 -158 -82 53 -27 59 78 90 47 33 return
          </CharString>
          <CharString index="97">
            rlineto
            6 -26 -12 callgsubr
            return
          </CharString>
          <CharString index="98">
            -16 vvcurveto
            -1 -22 return
          </CharString>
          <CharString index="99">
            -24 -126 -66 -49 -11 -6 3 8 vhcurveto
            10 12 12 10 vvcurveto
            return
          </CharString>
          <CharString index="100">
            -2 -2 -1 return
          </CharString>
          <CharString index="101">
            -31 56 -40 34 44 155 39 77 60 -45 19 -54 vhcurveto
            return
          </CharString>
          <CharString index="102">
            69 -47 -21 67 -20 hstemhm
            hintmask 01100000
            return
          </CharString>
          <CharString index="103">
            vvcurveto
            -30 24 -21 26 vhcurveto
            return
          </CharString>
          <CharString index="104">
            -97 -17 64 -64 216 return
          </CharString>
          <CharString index="105">
            -43 56 -2 -14 vvcurveto
            return
          </CharString>
          <CharString index="106">
            -36 callsubr
            hintmask 10000000
            -22 return
          </CharString>
          <CharString index="107">
            110 213 54 hstem
            -105 105 959 114 vstem
            return
          </CharString>
          <CharString index="108">
            153 187 168 36 7 -2 7 -6 4 return
          </CharString>
          <CharString index="109">
            rlineto
            4 4 11 15 25 vvcurveto
            37 -15 12 -15 vhcurveto
            return
          </CharString>
          <CharString index="110">
            242 -220 242 hstemhm
            return
          </CharString>
          <CharString index="111">
            vvcurveto
            15 -11 10 -9 -13 -10 -20 -14 -6 vhcurveto
            return
          </CharString>
          <CharString index="112">
            -99 -336 -21 380 72 239 -20 hstem
            return
          </CharString>
          <CharString index="113">
            -9 callgsubr
            vhcurveto
            endchar
          </CharString>
          <CharString index="114">
            -26 callgsubr
            hvcurveto
            return
          </CharString>
          <CharString index="115">
            -12 10 -18 15 13 11 13 1 3 vhcurveto
            return
          </CharString>
          <CharString index="116">
            vhcurveto
            -1 -2 0 -1 hhcurveto
            -80 45 -232 return
          </CharString>
          <CharString index="117">
            1 -17 callsubr
            return
          </CharString>
          <CharString index="118">
            -2 -18 133 return
          </CharString>
          <CharString index="119">
            196 -55 219 358 198 return
          </CharString>
          <CharString index="120">
            -345 -21 360 78 178 68 return
          </CharString>
          <CharString index="121">
            145 hstem
            59 172 vstem
            190 return
          </CharString>
          <CharString index="122">
            -10 hhcurveto
            hintmask 11100000
            -2 -1 1 3 return
          </CharString>
          <CharString index="123">
            -26 callgsubr
            -9 callgsubr
            return
          </CharString>
          <CharString index="124">
            152 397 76 return
          </CharString>
          <CharString index="125">
            -104 57 86 220 return
          </CharString>
          <CharString index="126">
            hstem
            34 180 return
          </CharString>
          <CharString index="127">
            -1 1 0 1 return
          </CharString>
          <CharString index="128">
            hhcurveto
            -3 -2 return
          </CharString>
        <CharString name=".notdef">
          -205 endchar
        </CharString>
        <CharString name="A">
          -69 callgsubr
          -52 callsubr
          hintmask 10011110
          -99 callsubr
          hintmask 01101110
          -103 callgsubr
          hintmask 10011110
          -94 callsubr
          hintmask 10101110
          -47 callgsubr
          endchar
        </CharString>
        <CharString name="AE">
          517 -49 157 -157 227 -178 108 455 196 hstemhm
          -1 231 854 -13 callsubr
          hintmask 00111100
          1087 759 rmoveto
          -110 -140 -37 -54 -108 hvcurveto
          15 -24 -35 7 -42 hhcurveto
          -67 callgsubr
          64 126 82 50 68 hvcurveto
          -5 -12 -2 -12 -11 vvcurveto
          hintmask 01011010
          -104 callgsubr
          hintmask 10011100
          -78 callsubr
          -845 -651 rmoveto
          -6 -6 3 14 90 201 217 140 90 hvcurveto
          -1 -6 -1 -7 -6 vvcurveto
          -26 16 -69 82 -18 vhcurveto
          -84 callsubr
          -90 -231 -211 -170 -58 hhcurveto
          endchar
        </CharString>
        <CharString name="Aacute">
          -69 callgsubr
          182 -20 -52 callsubr
          -57 237 hintmask 1001111100000000
          -99 callsubr
          hintmask 0110111100000000
          -103 callgsubr
          hintmask 1001111100000000
          -94 callsubr
          hintmask 1010111100000000
          -47 callgsubr
          175 229 -62 callgsubr
          hintmask 1010111010000000
          -100 callsubr
        </CharString>
        <CharString name="Acircumflex">
          -69 callgsubr
          -8 194 -52 callsubr
          hintmask 10010111
          -99 callsubr
          hintmask 01100111
          -103 callgsubr
          hintmask 10010111
          -94 callsubr
          hintmask 10100111
          -47 callgsubr
          hintmask 10001111
          80 66 -102 callgsubr
        </CharString>
        <CharString name="Adieresis">
          -69 callgsubr
          40 145 -52 callsubr
          hintmask 10011111
          -99 callsubr
          hintmask 01101111
          -103 callgsubr
          hintmask 10011111
          -94 callsubr
          hintmask 10101111
          -47 callgsubr
          -180 114 -106 callgsubr
        </CharString>
        <CharString name="Agrave">
          -69 callgsubr
          197 -20 -40 callsubr
          -21 218 -162 141 hintmask 1001111010000000
          -99 callsubr
          hintmask 0110111010000000
          -103 callgsubr
          hintmask 1001111010000000
          -94 callsubr
          hintmask 1010111010000000
          -47 callgsubr
          -153 271 rmoveto
          hintmask 1010110100000000
          -101 callsubr
        </CharString>
        <CharString name="Aring">
          -69 callgsubr
          29 136 -43 43 -52 callsubr
          -77 77 47 53 hintmask 1001101110100000
          -99 callsubr
          hintmask 0110101110100000
          -103 callgsubr
          hintmask 1001101110100000
          -94 callsubr
          hintmask 1010101110100000
          -47 callgsubr
          56 239 rmoveto
          hintmask 1010101101100000
          -53 callsubr
          hintmask 1010011110100000
          -23 callgsubr
          endchar
        </CharString>
        <CharString name="Atilde">
          -69 callgsubr
          33 77 -77 133 -52 callsubr
          hintmask 1001101110000000
          -99 callsubr
          hintmask 0110101110000000
          -103 callgsubr
          hintmask 1001101110000000
          -94 callsubr
          hintmask 1010101110000000
          -47 callgsubr
          88 181 -63 callsubr
          hintmask 1010011110000000
          -93 callsubr
        </CharString>
        <CharString name="B">
          221 -65 190 191 40 55 56 96 190 hstem
          602 119 vstem
          542 753 rmoveto
          -329 -150 -192 -50 -66 62 -34 57 90 44 27 22 hvcurveto
          5 -1 -6 2 -8 -15 -31 -9 -13 hhcurveto
          -6 -2 1 2 19 204 83 203 57 4 -12 -8 -6 -5 -5 -5 -2 hvcurveto
          -20 -25 -181 -100 -39 hhcurveto
          20 callsubr
          1 12 39 38 20 vvcurveto
          19 -15 0 -9 -6 -9 -1 -7 -7 vhcurveto
          -15 -12 -81 -106 -9 -4 rrcurveto
          -23 -14 -61 -2 -22 -18 17 -12 -12 vvcurveto
          -6 -80 -107 -9 -15 vhcurveto
          -3 -5 -2 -5 -3 vvcurveto
          -5 7 -12 14 13 17 9 6 7 vhcurveto
          7 9 126 151 11 1 rrcurveto
          4 20 31 2 33 hhcurveto
          77 66 -10 -26 -61 -247 -94 -163 hvcurveto
          -75 -49 15 -6 hhcurveto
          -32 -2 -53 -53 -49 vvcurveto
          -81 166 -20 56 146 376 70 199 125 -151 27 -84 vhcurveto
          -9 1 -5 1 2 vvcurveto
          4 9 5 7 3 vhcurveto
          80 25 157 88 33 19 rrcurveto
          32 19 16 34 30 vvcurveto
          41 -50 125 -214 vhcurveto
          endchar
        </CharString>
        <CharString name="C">
          26 -9 77 17 callgsubr
          36 206 hintmask 01110000
          691 -53 callgsubr
          -145 67 -50 84 1 callsubr
          vhcurveto
          3 -5 -5 2 -6 hhcurveto
          hintmask 10110000
          -19 callsubr
        </CharString>
        <CharString name="Ccedilla">
          37 -131 199 17 callgsubr
          47 173 -173 206 hintmask 10110000
          702 -53 callgsubr
          -94 27 -54 43 -26 vhcurveto
          1 -24 41 -19 -13 vvcurveto
          -6 -5 0 -6 -18 -37 11 4 -11 vhcurveto
          4 -9 -11 2 -8 hhcurveto
          -14 -4 -7 -12 -18 14 -37 14 -7 hvcurveto
          -9 15 39 -12 35 hhcurveto
          47 20 28 28 18 -8 19 -17 11 hvcurveto
          -13 9 -7 5 -3 6 rrcurveto
          hintmask 01110000
          -1 10 7 -1 9 hhcurveto
          1 callsubr
          hvcurveto
          3 -5 -5 2 -6 hhcurveto
          hintmask 10101000
          -19 callsubr
        </CharString>
        <CharString name="D">
          9 callgsubr
          209 -60 16 callgsubr
          hintmask 10011100
          -65 callgsubr
          hintmask 01011100
          -37 callsubr
          hintmask 10101100
          8 callsubr
          3 2 153 182 12 16 -12 callsubr
          -11 -11 -154 -194 0 vvcurveto
          endchar
        </CharString>
        <CharString name="E">
          -32 callgsubr
          2 callgsubr
          hintmask 11101000
          -105 callsubr
          hintmask 11110000
          -76 callsubr
          42 -126 vhcurveto
          endchar
        </CharString>
        <CharString name="Eacute">
          -32 callgsubr
          200 -20 10 callgsubr
          547 170 -129 237 hintmask 11111000
          -87 callgsubr
          270 173 -62 callgsubr
          hintmask 11110100
          -100 callsubr
        </CharString>
        <CharString name="Ecircumflex">
          -32 callgsubr
          -2 194 2 callgsubr
          hintmask 11010100
          -105 callsubr
          hintmask 11011000
          -78 callsubr
          hintmask 10111000
          206 -2 -102 callgsubr
        </CharString>
        <CharString name="Edieresis">
          -32 callgsubr
          38 145 2 callgsubr
          hintmask 11110100
          -105 callsubr
          hintmask 11111000
          -78 callsubr
          35 38 -106 callgsubr
        </CharString>
        <CharString name="Egrave">
          -32 callgsubr
          181 -20 10 callgsubr
          549 218 -181 131 hintmask 11110100
          -87 callgsubr
          43 181 rmoveto
          hintmask 11111000
          -101 callsubr
        </CharString>
        <CharString name="Eth">
          9 callgsubr
          122 -37 37 27 16 callgsubr
          hintmask 10101110
          -65 callgsubr
          hintmask 01011110
          -37 callsubr
          hintmask 10101110
          8 callsubr
          1 1 33 39 37 43 rrcurveto
          66 10 64 17 24 vvcurveto
          7 -7 5 -12 vhcurveto
          0 -23 -14 -56 -11 vhcurveto
          32 38 28 34 5 7 -12 callsubr
          -7 -7 -56 -70 -45 -57 rrcurveto
          -1 -25 -26 -1 -31 hhcurveto
          -11 -17 -4 -14 hvcurveto
          hintmask 10011110
          -15 19 -4 12 10 18 1 1 21 vhcurveto
          -16 -20 -11 -14 0 vvcurveto
          endchar
        </CharString>
        <CharString name="Euro">
          334 -9 77 -77 227 -11 79 50 82 129 140 hstemhm
          hintmask 10111000
          195 429 rmoveto
          -20 3 -19 4 -19 4 rrcurveto
          -16 -16 -7 -21 hvcurveto
          -5 vlineto
          4 -27 14 -15 20 -5 rrcurveto
          -9 54 136 -15 157 hhcurveto
          88 88 2 35 hvcurveto
          1 vlineto
          0 -7 44 -27 vhcurveto
          0 -32 -7 -49 -5 vhcurveto
          81 77 82 60 43 hhcurveto
          6 5 -1 -5 2 hvcurveto
          -3 -1 -4 -2 -5 vhcurveto
          -29 -51 -32 -16 -38 vvcurveto
          -11 2 10 -4 16 hhcurveto
          43 84 92 78 58 -45 50 -146 -151 -230 -81 -177 -90 hvcurveto
          189 -320 rmoveto
          0 3 74 21 24 vhcurveto
          82 2 59 8 46 vvcurveto
          8 -19 29 -12 vhcurveto
          -4 -6 -44 -10 -104 hhcurveto
          -69 -90 10 35 -152 hvcurveto
          -15 -15 -7 -23 hvcurveto
          1 -9 8 -65 37 5 88 -11 rlinecurve
          -172 14 90 -58 86 hhcurveto
          150 154 162 40 hvcurveto
          2 vlineto
          hintmask 01011000
          17 -5 -10 6 -13 hhcurveto
          hintmask 10111000
          -23 -137 -150 -54 hhcurveto
          -16 -9 9 32 hvcurveto
          endchar
        </CharString>
        <CharString name="F">
          -159 0 -21 448 200 114 -20 hstem
          210 238 rmoveto
          0 263 62 21 11 vhcurveto
          18 9 13 7 15 vvcurveto
          17 -13 27 -23 vhcurveto
          -53 -95 -19 -20 hhcurveto
          -4 -3 2 3 hvcurveto
          10 45 37 16 5 -6 12 3 vvcurveto
          3 2 4 5 vhcurveto
          50 1 414 128 45 vvcurveto
          -46 callgsubr
          vhcurveto
          74 47 16 8 hhcurveto
          5 4 -1 -4 -3 -2 -3 -4 -6 hvcurveto
          -10 -13 -61 -69 0 vvcurveto
          0 -177 -42 -110 -43 vhcurveto
          -11 -4 -19 -11 -18 vvcurveto
          -5 1 -5 3 -5 vhcurveto
          -24 13 8 -14 22 32 107 33 11 hhcurveto
          3 2 -2 19 callgsubr
          -3 hvcurveto
          -9 -9 -101 -130 -5 -8 rrcurveto
          -4 -7 -15 -28 -14 vvcurveto
          -12 18 -7 13 17 26 32 -1 vhcurveto
          endchar
        </CharString>
        <CharString name="G">
          236 -21 87 85 208 92 249 -132 132 hstemhm
          36 243 504 171 hintmask 11011100
          809 264 rmoveto
          69 -67 26 -82 -130 -167 -65 5 callgsubr
          -17 -1 -107 -69 -66 hhcurveto
          -23 -5 14 15 242 456 231 110 3 3 12 callgsubr
          -15 -68 -43 -33 vvcurveto
          hintmask 11101100
          -11 4 -10 15 46 106 112 43 63 -76 31 -109 -268 -465 -189 -359 -24 14 -149 157 82 148 37 149 137 vhcurveto
          2 5 233 38 56 vvcurveto
          endchar
        </CharString>
        <CharString name="H">
          200 -13 -21 722 -20 hstem
          937 688 rmoveto
          -81 -187 -230 -110 -100 hvcurveto
          -59 -9 -58 -13 -38 -8 rrcurveto
          89 135 66 100 34 vvcurveto
          26 -20 52 -36 -82 -406 -423 -138 -43 23 -95 55 63 191 272 0 0 12 -234 66 65 133 253 2 31 vhcurveto
          48 4 40 0 29 2 rrcurveto
          21 14 12 17 18 -17 22 -57 20 hvcurveto
          128 176 67 45 21 89 rrcurveto
          0 0 24 -21 vhcurveto
          -538 -472 rmoveto
          18 64 4 16 2 vhcurveto
          -27 -34 -24 -33 -16 -28 rrcurveto
          endchar
        </CharString>
        <CharString name="I">
          -68 -20 -21 709 -20 hstem
          -76 callgsubr
          endchar
        </CharString>
        <CharString name="Iacute">
          -68 -20 -21 891 -20 hstem
          676 237 vstem
          -76 callgsubr
          896 752 -100 callgsubr
        </CharString>
        <CharString name="Icircumflex">
          -68 -20 -21 706 194 hstem
          -76 callgsubr
          767 594 -102 callgsubr
        </CharString>
        <CharString name="Idieresis">
          -68 -20 -21 749 145 hstem
          -76 callgsubr
          598 637 -106 callgsubr
        </CharString>
        <CharString name="Igrave">
          -68 -20 -21 909 -20 hstem
          520 218 vstem
          -76 callgsubr
          552 797 -95 callsubr
        </CharString>
        <CharString name="J">
          219 -267 63 473 64 159 201 hstem
          183 189 390 95 vstem
          857 546 rmoveto
          106 -72 41 -98 -200 -304 -169 -114 -93 99 -48 97 41 79 17 29 13 -12 5 -15 vhcurveto
          0 -66 -10 -12 -7 -15 1 6 46 258 116 98 22 12 -5 -19 -37 -60 -80 -85 -92 vhcurveto
          1 -11 -11 1 -12 hhcurveto
          -200 -472 -160 -252 -48 40 -68 53 124 214 155 179 183 hvcurveto
          66 25 67 21 64 16 rrcurveto
          16 4 5 13 10 vvcurveto
          25 -35 32 -29 20 vhcurveto
          105 126 73 118 69 vvcurveto
          -788 -747 rmoveto
          41 118 78 155 73 vhcurveto
          -110 -124 -113 -85 -32 hhcurveto
          -2 -2 1 2 hvcurveto
          endchar
        </CharString>
        <CharString name="K">
          297 -57 -21 96 -21 738 -20 hstem
          25 126 rmoveto
          -39 56 -90 51 54 183 202 14 15 vhcurveto
          6 7 5 3 3 26 27 -300 200 hhcurveto
          55 40 22 38 45 -139 317 0 hvcurveto
          6 7 4 0 vhcurveto
          13 5 494 212 128 vvcurveto
          29 -38 7 -24 -45 -191 -61 -40 -25 40 -12 6 vhcurveto
          20 79 44 11 1 callgsubr
          -1 -1 15 callgsubr
          -4 -3 hvcurveto
          -12 -11 -240 -167 -166 -54 rrcurveto
          -2 -7 -9 -3 -5 21 callsubr
          1 2 3 3 5 6 8 hvcurveto
          21 24 138 174 49 vvcurveto
          2 vlineto
          30 -4 -8 26 -33 hhcurveto
          -181 -450 -486 -107 hvcurveto
          endchar
        </CharString>
        <CharString name="L">
          347 18 callsubr
          66 0 callsubr
          507 249 rmoveto
          22 26 21 25 21 25 rrcurveto
          237 16 265 -42 callsubr
          -19 -23 -19 -23 -20 -23 -75 callgsubr
          452 395 -50 callsubr
        </CharString>
        <CharString name="Lslash">
          347 18 callsubr
          6 32 28 0 callsubr
          657 285 rmoveto
          0 -1 17 -15 vhcurveto
          0 -14 -5 -35 -12 -15 0 2 -16 vhcurveto
          7 9 7 8 8 9 rrcurveto
          236 16 266 -42 callsubr
          -4 -5 -5 -6 -5 -6 -28 5 -32 8 -38 10 rrcurveto
          1 -3 -3 0 -4 hhcurveto
          -10 -12 -4 -13 -13 44 -16 59 -10 hvcurveto
          -5 -6 -6 -7 -6 -7 -75 callgsubr
          5 6 6 7 5 6 rrcurveto
          -2 21 22 -1 22 hhcurveto
          37 28 5 15 4 hvcurveto
          302 359 -50 callsubr
        </CharString>
        <CharString name="M">
          367 -44 171 -125 125 648 -20 hstemhm
          hintmask 01100000
          -21 133 rmoveto
          23 79 97 19 vvcurveto
          18 -12 8 -14 -50 -90 -192 -56 -23 7 -25 21 71 255 269 48 54 vhcurveto
          2 2 2 1 1 hhcurveto
          3 -2 rlineto
          -9 -129 -179 -69 vvcurveto
          -15 32 -41 20 vhcurveto
          58 348 338 25 1 callgsubr
          0 19 callgsubr
          -3 hvcurveto
          -65 -49 -145 -166 -82 vvcurveto
          hintmask 10100000
          -41 20 -41 69 130 179 148 35 16 -11 4 -10 vhcurveto
          -22 -19 -31 -11 hhcurveto
          -2 -4 0 3 hvcurveto
          46 449 480 57 vvcurveto
          24 -30 37 -28 vhcurveto
          -46 -451 -357 -14 hhcurveto
          -1 -1 2 2 hvcurveto
          8 80 152 37 vvcurveto
          16 -47 108 -46 -23 -196 -244 -166 -190 vhcurveto
          -110 -126 -101 -96 -13 hhcurveto
          -3 -3 3 3 hvcurveto
          endchar
        </CharString>
        <CharString name="N">
          90 9 -21 762 -20 hstem
          567 331 rmoveto
          13 115 218 79 vvcurveto
          24 -18 85 -52 -81 -175 -238 -143 -154 vhcurveto
          0 -219 -222 -21 -3 -1 2 3 vhcurveto
          22 59 90 29 vvcurveto
          13 -11 6 -11 -49 -62 -175 -46 -19 6 -34 29 -2 vhcurveto
          99 1 274 334 76 87 rrcurveto
          6 5 10 6 6 hhcurveto
          4 2 -2 -4 -6 -6 -9 -7 -7 hvcurveto
          -78 -76 -91 -220 -38 vvcurveto
          -27 55 -93 48 79 170 205 188 173 vhcurveto
          173 187 158 117 12 10 rrcurveto
          7 6 2 5 5 vvcurveto
          16 -29 16 -14 -15 -17 -6 -5 -12 vhcurveto
          -101 -37 -249 -293 -59 -59 rrcurveto
          -7 -6 -8 -12 -10 hhcurveto
          -2 -1 4 3 hvcurveto
          endchar
        </CharString>
        <CharString name="Ntilde">
          90 9 -21 802 7 callgsubr
          hintmask 11000000
          567 331 rmoveto
          -3 1 -4 2 10 8 12 7 6 vhcurveto
          59 59 249 293 101 37 rrcurveto
          5 12 17 6 15 hhcurveto
          14 29 -16 -16 -5 -2 -5 -7 -6 hvcurveto
          -12 -10 -158 -117 -173 -187 rrcurveto
          -188 -173 -170 -205 -79 hhcurveto
          -48 -55 93 27 38 91 220 78 76 hvcurveto
          7 7 6 9 6 vvcurveto
          4 -2 2 -4 -6 -10 -6 -6 -5 vhcurveto
          -76 -87 -274 -334 -99 -1 rrcurveto
          -29 2 -6 34 19 vvcurveto
          46 62 175 49 11 11 -6 -13 vhcurveto
          -29 -59 -90 -22 vvcurveto
          -3 1 -2 3 21 219 222 0 vhcurveto
          143 154 175 238 81 hhcurveto
          52 18 -85 -24 hvcurveto
          -79 -115 -218 -13 vvcurveto
          473 533 -63 callsubr
          hintmask 10100000
          -93 callsubr
        </CharString>
        <CharString name="O">
          -57 callsubr
          -20 callgsubr
          hintmask 11011000
          -104 callsubr
          hintmask 10111000
          -85 callgsubr
          endchar
        </CharString>
        <CharString name="OE">
          641 -49 138 -138 227 -197 108 451 172 -149 196 hstemhm
          36 245 927 -13 callsubr
          hintmask 10001110
          1211 759 rmoveto
          -133 -181 -54 -74 -109 hvcurveto
          hintmask 00110110
          51 -20 -53 30 -37 -73 callgsubr
          102 125 69 95 117 hvcurveto
          -9 -16 -5 -16 -16 vvcurveto
          hintmask 01001101
          -104 callgsubr
          hintmask 10001110
          -78 callsubr
          -930 -634 rmoveto
          hintmask 10010110
          -89 callgsubr
          5 14 33 45 35 39 rrcurveto
          -2 -8 -1 -7 -7 vvcurveto
          -14 4 -25 16 -24 vhcurveto
          -153 -110 -213 -198 -79 hhcurveto
          -19 -11 11 25 hvcurveto
          483 273 rmoveto
          8 -3 9 -3 10 -2 -84 callsubr
          -24 -4 -104 -41 -90 -57 43 44 39 45 34 43 rrcurveto
          endchar
        </CharString>
        <CharString name="Oacute">
          -57 callsubr
          167 -20 -20 callgsubr
          -103 237 -80 callsubr
          731 727 -25 callsubr
          hintmask 11011010
          -86 callgsubr
        </CharString>
        <CharString name="Ocircumflex">
          -57 callsubr
          -13 194 -20 callgsubr
          hintmask 11001100
          -104 callsubr
          hintmask 10101100
          -85 callgsubr
          hintmask 10011100
          661 574 -102 callgsubr
        </CharString>
        <CharString name="Odieresis">
          -57 callsubr
          57 145 -20 callgsubr
          -80 callsubr
          381 644 -106 callgsubr
        </CharString>
        <CharString name="Ograve">
          -57 callsubr
          183 -20 hstemhm
          36 245 403 218 -122 103 hintmask 11011010
          -104 callsubr
          hintmask 10111010
          -85 callgsubr
          447 770 rmoveto
          hintmask 11011100
          -101 callsubr
        </CharString>
        <CharString name="Oslash">
          99 -108 -21 131 -21 559 172 91 -20 hstem
          36 245 499 103 vstem
          189 -79 -79 callgsubr
          8 10 41 56 56 78 rrcurveto
          253 131 284 346 115 vvcurveto
          -48 callsubr
          vhcurveto
          -3 hlineto
          44 66 29 45 7 -72 callsubr
          -2 -3 -18 -25 -27 -39 rrcurveto
          8 -18 -20 2 -19 -73 callgsubr
          20 22 3 5 22 hvcurveto
          -29 -42 -18 -26 0 vvcurveto
          92 204 rmoveto
          -68 callgsubr
          -1 vlineto
          -99 -142 -124 -177 -90 -128 rrcurveto
          -16 1 -9 12 23 vvcurveto
          491 462 rmoveto
          4 4 -2 -7 hvcurveto
          -2 -90 -203 -231 -147 -109 79 111 90 128 77 113 rrcurveto
          42 36 44 45 18 hhcurveto
          endchar
        </CharString>
        <CharString name="Otilde">
          -57 callsubr
          22 77 -77 133 -20 callgsubr
          hintmask 11010110
          -104 callsubr
          hintmask 10110110
          -85 callgsubr
          688 683 -63 callsubr
          hintmask 11001110
          -93 callsubr
        </CharString>
        <CharString name="P">
          41 13 -21 253 162 -88 88 139 188 hstemhm
          -7 168 649 62 hintmask 10111100
          162 42 -79 callgsubr
          16 20 95 112 92 111 rrcurveto
          294 32 161 155 96 vvcurveto
          144 -127 56 -158 -11 callsubr
          vhcurveto
          -6 callgsubr
          61 344 100 190 65 51 -9 -17 -1 hvcurveto
          -5 -86 -170 -76 -154 -30 rrcurveto
          66 81 52 68 12 -72 callsubr
          -5 -7 -61 -73 -69 -84 rrcurveto
          -1 -12 -11 0 -10 hhcurveto
          -13 -13 1 1 -12 6 callgsubr
          hvcurveto
          hintmask 11011100
          -27 30 -9 18 vhcurveto
          24 hlineto
          -86 -104 -83 -99 0 vvcurveto
          endchar
        </CharString>
        <CharString name="Q">
          350 -42 47 14 -21 66 199 61 41 138 179 hstemhm
          186 159 476 69 hintmask 10111110
          921 37 rmoveto
          75 -113 66 -150 41 vhcurveto
          133 100 99 111 82 vvcurveto
          121 -111 49 -134 -203 -256 -114 -149 -59 69 -35 95 -1 vhcurveto
          51 93 19 32 hvcurveto
          10 -2 -10 3 -14 -15 -72 -23 -29 hhcurveto
          -5 -2 2 2 46 310 88 120 29 17 -5 -12 hvcurveto
          -1 -48 -98 -104 -132 -99 rrcurveto
          18 -84 -90 10 -86 hhcurveto
          -209 -184 -58 -149 -81 109 -17 38 76 111 37 55 114 hvcurveto
          hintmask 01111110
          -19 171 247 -33 37 hhcurveto
          35 46 4 35 hvcurveto
          -688 27 rmoveto
          12 21 -2 -2 27 hvcurveto
          hintmask 10111110
          -34 -79 -77 -21 -65 hhcurveto
          -8 -4 2 2 14 96 41 77 hvcurveto
          endchar
        </CharString>
        <CharString name="R">
          289 -63 -21 104 -21 340 67 123 183 hstem
          -7 161 656 78 vstem
          888 509 rmoveto
          142 -171 61 -193 -248 -283 -101 -158 -82 84 -32 69 67 62 24 9 23 vhcurveto
          14 6 5 6 5 vvcurveto
          10 -15 7 -11 vhcurveto
          -30 -80 -14 -22 21 callsubr
          0 2 51 342 84 190 73 51 -13 -31 -68 -332 -72 -4 hvcurveto
          0 35 50 21 29 vhcurveto
          14 19 7 12 10 vvcurveto
          10 -7 8 -11 -13 -17 -10 -12 -12 vhcurveto
          -16 -16 -92 -119 0 vvcurveto
          0 -33 -7 -46 -8 vhcurveto
          -21 -4 -7 -9 -11 vvcurveto
          -12 10 -14 10 -8 vhcurveto
          9 -6 3 -5 -4 vvcurveto
          -6 -6 -6 -7 -10 vhcurveto
          -41 -43 -90 -136 -5 -13 rrcurveto
          -19 11 10 -6 8 hhcurveto
          12 11 14 8 10 hvcurveto
          16 15 116 143 0 vvcurveto
          -81 61 115 -182 147 hhcurveto
          62 44 35 35 hvcurveto
          44 -233 245 21 vvcurveto
          4 6 4 12 4 vhcurveto
          129 20 192 82 99 vvcurveto
          endchar
        </CharString>
        <CharString name="S">
          12 callsubr
          -81 callsubr
          endchar
        </CharString>
        <CharString name="Scaron">
          12 callsubr
          236 -20 -81 callsubr
          457 474 -87 callsubr
        </CharString>
        <CharString name="T">
          -265 -42 -21 488 200 114 -20 hstem
          -33 217 vstem
          799 634 rmoveto
          -46 callgsubr
          55 87 19 10 43 vhcurveto
          -9 -5 -6 -8 -4 -3 -17 -17 -82 -82 -74 -84 rrcurveto
          0 -193 -205 -81 vvcurveto
          -22 22 -10 16 14 11 14 13 13 vhcurveto
          15 15 184 242 9 11 9 11 116 141 16 19 rrcurveto
          9 10 8 12 10 vvcurveto
          18 -23 6 -7 1 vhcurveto
          53 2 410 127 45 vvcurveto
          endchar
        </CharString>
        <CharString name="Thorn">
          172 13 -21 229 88 139 188 67 -20 hstem
          -7 168 649 62 vstem
          202 42 -79 callgsubr
          9 11 46 56 61 74 rrcurveto
          324 19 178 167 101 vvcurveto
          93 -53 55 -80 29 vhcurveto
          26 35 17 24 6 -72 callsubr
          -2 -3 -13 -15 -17 -22 rrcurveto
          4 -28 -30 3 -31 hhcurveto
          -11 callsubr
          hvcurveto
          -6 callgsubr
          44 181 65 172 32 hvcurveto
          -57 -71 -60 -74 -53 -66 rrcurveto
          -9 -8 1 1 -8 6 callgsubr
          -19 15 -10 15 -5 hvcurveto
          -51 -63 -36 -44 0 vvcurveto
          608 380 rmoveto
          -5 -96 -212 -83 -164 -21 57 70 64 78 57 72 rrcurveto
          4 31 30 2 27 hhcurveto
          65 51 -9 -17 -1 hvcurveto
          endchar
        </CharString>
        <CharString name="U">
          11 callgsubr
          735 -20 hstem
          -91 callgsubr
          endchar
        </CharString>
        <CharString name="Uacute">
          11 callgsubr
          713 202 hstem
          808 237 vstem
          -102 callsubr
          474 153 -100 callgsubr
        </CharString>
        <CharString name="Ucircumflex">
          11 callgsubr
          747 194 hstem
          -102 callsubr
          410 12 -102 callgsubr
        </CharString>
        <CharString name="Udieresis">
          11 callgsubr
          778 145 hstem
          -102 callsubr
          144 43 -106 callgsubr
        </CharString>
        <CharString name="Ugrave">
          11 callgsubr
          944 -20 hstem
          721 218 vstem
          -91 callgsubr
          199 209 -95 callsubr
        </CharString>
        <CharString name="V">
          -17 -19 -21 782 -20 hstem
          -10 127 rmoveto
          -72 2 62 -95 61 hhcurveto
          1 hlineto
          50 99 3 93 83 hvcurveto
          543 609 177 -36 45 vvcurveto
          24 -40 13 -21 vhcurveto
          -237 -359 -588 -111 hhcurveto
          -12 -4 7 9 hvcurveto
          147 359 343 66 vvcurveto
          27 -41 20 -20 -158 -434 -312 -303 vhcurveto
          endchar
        </CharString>
        <CharString name="W">
          221 -21 -21 769 -20 hstem
          -43 123 rmoveto
          -52 68 -61 41 -8 vhcurveto
          36 5 218 231 20 15 rrcurveto
          5 5 7 6 3 hhcurveto
          1 0 -1 -1 -3 -2 -8 -8 -13 hvcurveto
          -22 -39 -45 -88 -39 vvcurveto
          -34 25 -80 56 82 370 365 99 124 vhcurveto
          70 55 106 82 44 20 rrcurveto
          27 12 20 12 18 vvcurveto
          22 -37 38 -29 -46 -51 -47 -11 -11 vhcurveto
          -15 -15 -273 -235 -88 -88 rrcurveto
          -5 -5 -4 -2 -2 hhcurveto
          -1 -1 1 2 2 1 4 4 6 hvcurveto
          10 17 149 216 56 vvcurveto
          56 -49 44 -46 vhcurveto
          -7 -1 -15 -8 -20 -18 -128 -122 -106 -122 -99 -72 rrcurveto
          -1 -3 -1 -1 -2 18 callgsubr
          3 3 5 6 9 hvcurveto
          38 53 129 181 56 vvcurveto
          30 -30 44 -27 6 vhcurveto
          -128 -359 -412 -192 hvcurveto
          endchar
        </CharString>
        <CharString name="X">
          150 -29 -21 770 -20 hstem
          587 2 rmoveto
          0 27 0 28 vvcurveto
          39 -50 65 -12 19 vhcurveto
          -5 8 -32 56 -42 73 rrcurveto
          166 139 153 99 67 vvcurveto
          71 -107 4 0 -27 -149 -68 -98 -158 vhcurveto
          -53 91 -43 75 -2 6 rrcurveto
          13 -6 -14 31 -25 hhcurveto
          -26 -12 -23 -16 -11 4 -10 1 -3 hvcurveto
          0 52 -89 61 -104 vhcurveto
          -184 -122 -177 -155 -129 vvcurveto
          -39 53 -69 47 93 134 148 143 163 vhcurveto
          30 -53 24 -41 6 -10 rrcurveto
          -38 19 48 -97 43 hhcurveto
          endchar
        </CharString>
        <CharString name="Y">
          89 -347 -21 876 175 hstem
          535 483 rmoveto
          -47 callsubr
          -280 -217 -39 callgsubr
          -40 -38 -272 -301 -43 -58 rrcurveto
          -28 -38 -25 -39 -39 vvcurveto
          -24 23 -56 33 29 23 66 110 80 vhcurveto
          105 145 453 507 43 49 -19 callgsubr
          -348 -228 13 callgsubr
          -5 -1 4 5 hvcurveto
          1 7 22 27 130 123 101 122 rlinecurve
          endchar
        </CharString>
        <CharString name="Yacute">
          89 -347 -21 1051 187 hstem
          713 237 vstem
          -92 callsubr
          410 360 -100 callgsubr
        </CharString>
        <CharString name="Ydieresis">
          89 -347 -21 1106 145 hstem
          -92 callsubr
          147 255 -106 callgsubr
        </CharString>
        <CharString name="Z">
          0 callgsubr
          86 -88 callsubr
          endchar
        </CharString>
        <CharString name="Zcaron">
          0 callgsubr
          272 -88 callsubr
          395 358 -87 callsubr
        </CharString>
        <CharString name="a">
          -45 callsubr
          329 -20 -99 callgsubr
          endchar
        </CharString>
        <CharString name="aacute">
          -23 111 -75 -21 502 -20 -29 callsubr
          -37 237 hintmask 01111000
          99 -8 rmoveto
          -91 callsubr
          hintmask 10111000
          -101 callgsubr
          -98 callsubr
          vhcurveto
          hintmask 01110100
          -22 callgsubr
          545 475 -100 callgsubr
        </CharString>
        <CharString name="acircumflex">
          -45 callsubr
          314 194 -99 callgsubr
          419 314 -102 callgsubr
        </CharString>
        <CharString name="acute">
          364 -21 151 -20 hstem
          140 237 vstem
          372 467 -100 callgsubr
        </CharString>
        <CharString name="adieresis">
          -45 callsubr
          363 145 -99 callgsubr
          234 363 -106 callgsubr
        </CharString>
        <CharString name="ae">
          176 -23 111 -96 55 -55 207 -195 -21 400 -20 hstemhm
          38 168 31 215 hintmask 01001110
          468 -34 callsubr
          -27 callsubr
          hintmask 00101110
          -43 callgsubr
          -66 -96 -34 -47 -57 vhcurveto
          12 -18 -24 7 -22 hhcurveto
          -176 -142 -165 -88 0 3 -76 58 -91 callsubr
          hintmask 10001110
          -18 24 -15 15 13 22 10 12 23 vhcurveto
          hintmask 00011110
          -10 11 15 -6 23 hhcurveto
          -34 callgsubr
          hvcurveto
          -54 callsubr
          vhcurveto
          hintmask 01001110
          -51 callgsubr
          hintmask 10001110
          -251 41 rmoveto
          -6 -5 6 5 32 108 64 58 26 hvcurveto
          3 -24 19 -9 17 -8 rrcurveto
          -19 -50 -111 -73 -33 hhcurveto
          endchar
        </CharString>
        <CharString name="agrave">
          -45 callsubr
          525 -20 hstemhm
          38 168 29 214 -103 callsubr
          180 525 -95 callsubr
        </CharString>
        <CharString name="ampersand">
          530 -49 81 104 213 200 170 hstemhm
          -13 206 456 -13 callsubr
          hintmask 11110100
          588 137 rmoveto
          -55 -133 -50 -112 -81 -69 26 71 69 73 84 115 52 vhcurveto
          -97 callsubr
          hintmask 11111000
          -68 callsubr
          89 87 52 -41 42 -126 -45 callgsubr
          -43 82 -18 vhcurveto
          -84 callsubr
          -186 -60 -134 -140 -103 vvcurveto
          -58 63 -42 163 82 249 50 149 137 vhcurveto
          2 5 288 43 56 vvcurveto
          69 -67 26 -82 -130 -222 -70 5 callgsubr
          endchar
        </CharString>
        <CharString name="apple">
          177 -12 45 63 45 327 44 63 45 hstem
          0 45 138 54 164 57 129 45 vstem
          434 738 rmoveto
          -60 hlineto
          -59 -61 -58 61 rlineto
          -59 hlineto
          90 -85 rlineto
          1 9 9 0 10 hhcurveto
          9 10 0 -1 9 hvcurveto
          288 -349 rmoveto
          174 -142 142 -174 -175 -141 -142 -174 -174 141 -142 175 174 142 142 174 vhcurveto
          -46 hmoveto
          -150 -121 -121 -149 -150 -121 121 150 149 121 122 150 149 121 -122 -149 vhcurveto
          -128 -100 rmoveto
          134 -221 -10 85 vvcurveto
          32 32 23 48 35 39 -13 -29 33 vhcurveto
          11 43 rlineto
          12 -24 -42 31 -55 hhcurveto
          -57 -74 -24 -79 hvcurveto
          -112 218 -14 -83 vvcurveto
          -35 -36 -24 -54 -36 -45 12 29 -47 vhcurveto
          -9 -47 rlineto
          -18 37 44 -21 48 hhcurveto
          81 74 33 75 hvcurveto
          endchar
        </CharString>
        <CharString name="aring">
          -45 callsubr
          368 136 -43 43 -29 callsubr
          -84 177 -53 53 hintmask 1001010100000000
          498 496 rmoveto
          -53 callsubr
          hintmask 0010111010000000
          -23 callgsubr
          -349 -411 rmoveto
          -91 callsubr
          hintmask 0101011010000000
          -101 callgsubr
          hintmask 1001011010000000
          -98 callsubr
          vhcurveto
          hintmask 0011011010000000
          -22 callgsubr
          endchar
        </CharString>
        <CharString name="asciicircum">
          266 -21 255 -20 hstem
          332 245 rmoveto
          15 6 20 28 57 -32 150 -21 -125 -130 -131 -81 callgsubr
          102 52 48 14 rrcurveto
          -30 10 17 -134 44 hhcurveto
          endchar
        </CharString>
        <CharString name="asciitilde">
          -5 95 77 56 -20 hstem
          450 169 -64 callsubr
          -37 -114 -90 callsubr
          101 -56 callsubr
          endchar
        </CharString>
        <CharString name="asterisk">
          23 283 -21 89 207 hstem
          225 193 vstem
          193 485 rmoveto
          -15 11 -18 15 -18 vhcurveto
          -40 1 -44 3 0 vvcurveto
          19 callgsubr
          vvcurveto
          -19 54 -23 73 -18 vhcurveto
          -19 -38 -14 -35 -18 vvcurveto
          -15 8 -2 5 vhcurveto
          0 42 55 33 34 vhcurveto
          14 -10 81 -66 -3 -7 rrcurveto
          5 8 2 15 14 -7 25 -13 27 hvcurveto
          65 23 20 35 1 hvcurveto
          -4 30 -14 9 -37 5 rrcurveto
          22 23 18 24 20 vvcurveto
          22 -28 19 -17 -29 -36 -26 -59 -41 vhcurveto
          38 -31 -28 16 -24 hhcurveto
          -45 0 -42 0 hvcurveto
          endchar
        </CharString>
        <CharString name="at">
          171 -83 30 83 45 -45 89 -89 180 175 60 hstemhm
          109 85 61 135 25 183 40 38 hintmask 1100111110000000
          486 75 rmoveto
          0 -6 1 4 vvcurveto
          10 14 24 21 23 vhcurveto
          20 21 23 22 16 vvcurveto
          hintmask 1001111110000000
          7 -5 7 -7 vhcurveto
          hintmask 1010111110000000
          -26 -91 -91 -30 hhcurveto
          -5 -4 5 4 31 129 69 28 6 hvcurveto
          8 1 29 5 18 vvcurveto
          25 -39 22 -35 -141 -114 -132 -70 0 3 -61 46 33 65 45 11 15 vhcurveto
          1 1 -8 callgsubr
          hhcurveto
          2 2 2 0 0 vvcurveto
          2 20 callgsubr
          -11 -11 -10 -21 vvcurveto
          -14 19 -12 12 149 81 123 115 113 -114 64 -126 -155 -172 -96 -216 -161 133 -55 127 117 112 46 51 11 -3 1 -8 20 vhcurveto
          -61 -31 -87 -38 -84 hhcurveto
          -97 -94 51 126 118 190 143 131 70 53 -40 -106 hvcurveto
          hintmask 1100111110000000
          -87 -68 -75 -84 -2 vhcurveto
          endchar
        </CharString>
        <CharString name="atilde">
          -45 callsubr
          361 77 -77 133 -29 callsubr
          hintmask 10010110
          568 427 -63 callsubr
          hintmask 00101110
          -95 callgsubr
          -469 -435 rmoveto
          -91 callsubr
          hintmask 01010110
          -101 callgsubr
          hintmask 10010110
          -98 callsubr
          vhcurveto
          hintmask 00110110
          -22 callgsubr
          endchar
        </CharString>
        <CharString name="b">
          -103 -14 65 106 27 507 -20 hstem
          321 46 vstem
          339 273 rmoveto
          50 298 251 42 vvcurveto
          24 -5 51 -16 -79 -504 -471 -142 -67 33 -25 46 99 155 116 60 1 vhcurveto
          -3 13 13 -2 13 hhcurveto
          42 38 17 27 2 hvcurveto
          10 -10 0 0 vhcurveto
          -21 -13 -20 -6 -19 hhcurveto
          -19 -18 6 5 -11 hvcurveto
          6 21 11 26 19 vvcurveto
          9 -4 7 -10 vhcurveto
          -82 -57 rmoveto
          -27 10 -3 12 -11 vhcurveto
          -55 -92 -73 -63 -2 -2 1 3 11 119 166 18 -1 vhcurveto
          endchar
        </CharString>
        <CharString name="backslash">
          -81 -149 -21 991 -20 hstem
          331 -133 rmoveto
          0 -127 875 -2 23 vhcurveto
          22 -2 -6 34 -30 hhcurveto
          -13 -10 -4 -19 -109 120 -777 8 -49 hvcurveto
          -6 1 10 -27 19 hhcurveto
          24 8 24 13 hvcurveto
          endchar
        </CharString>
        <CharString name="bar">
          -256 764 -20 hstem
          243 764 rmoveto
          -115 -573 -71 -275 -36 vvcurveto
          -39 56 4 5 38 vhcurveto
          177 847 -10 callsubr
          endchar
        </CharString>
        <CharString name="braceleft">
          -28 -118 -21 914 -20 hstemhm
          94 212 -125 107 -92 138 -138 232 -191 69 -69 119 hintmask 11000010
          237 499 rmoveto
          hintmask 11100000
          -136 -143 40 -84 vvcurveto
          -15 14 -18 37 -17 vhcurveto
          hintmask 11010000
          8 -4 28 -15 -45 -114 -146 -78 -84 vvcurveto
          -56 47 -12 -21 callgsubr
          hintmask 11000010
          22 42 107 149 85 75 -63 17 16 vvcurveto
          hintmask 11000001
          10 22 103 -31 178 vvcurveto
          hintmask 11001000
          80 -22 92 31 vvcurveto
          1 hlineto
          11 53 -36 13 hhcurveto
          hintmask 11000100
          9 7 5 13 33 -102 79 -69 -33 -28 -26 -48 -20 6 -13 0 hvcurveto
          hintmask 11000010
          21 -59 14 -60 -50 vvcurveto
          endchar
        </CharString>
        <CharString name="braceright">
          7 -139 -21 847 64 hstemhm
          46 192 -118 118 -101 101 -58 58 2 70 hintmask 11000110
          310 414 rmoveto
          63 54 75 66 67 vhcurveto
          0 26 24 3 40 vhcurveto
          45 -28 19 -52 4 vhcurveto
          -73 -83 -14 -34 -3 hvcurveto
          -9 8 -7 7 vhcurveto
          15 32 3 19 hhcurveto
          8 6 -1 -1 1 hvcurveto
          -27 -42 -109 -149 -84 -68 60 -22 -11 vvcurveto
          hintmask 11010010
          -22 -120 37 -186 vvcurveto
          hintmask 11001010
          -83 17 -89 -33 vvcurveto
          -2 -1 -1 0 -1 -12 -45 79 -13 hhcurveto
          hintmask 11100010
          -9 -9 -5 -12 -45 95 -111 69 25 40 21 51 hvcurveto
          66 -37 35 99 vvcurveto
          117 62 5 13 52 17 16 20 vhcurveto
          58 -72 30 56 vvcurveto
          endchar
        </CharString>
        <CharString name="bracketleft">
          -28 -118 -21 818 96 hstemhm
          59 229 -92 245 hintmask 11010000
          334 681 rmoveto
          1 hlineto
          90 -4 rlineto
          9 7 5 13 33 -115 47 -69 -33 -28 -26 -48 hvcurveto
          hintmask 11100000
          -290 -137 -338 -146 vvcurveto
          -56 23 -10 -21 callgsubr
          endchar
        </CharString>
        <CharString name="bracketright">
          -28 -139 96 818 -20 hstemhm
          35 245 -92 236 hintmask 11100000
          142 -45 rmoveto
          -1 hlineto
          -90 4 rlineto
          -9 -7 -5 -13 -33 115 -47 69 33 28 26 48 hvcurveto
          hintmask 11010000
          278 144 394 93 vvcurveto
          56 -30 19 -30 -71 -105 -54 -34 -6 4 -5 9 -4 vhcurveto
          16 62 43 17 hhcurveto
          1 1 -1 -3 1 hvcurveto
          endchar
        </CharString>
        <CharString name="breve">
          339 76 96 -20 hstem
          277 477 rmoveto
          -102 7 40 -36 47 hhcurveto
          74 91 91 66 6 -9 9 -7 -7 callsubr
          -1 -1 hvcurveto
          -34 -25 -58 -60 -47 hhcurveto
          -27 -27 19 55 -22 hvcurveto
          -23 -9 -12 0 hvcurveto
          endchar
        </CharString>
        <CharString name="brokenbar">
          -256 -126 -21 911 -20 hstem
          170 420 rmoveto
          -27 21 -22 16 7 7 5 11 2 vhcurveto
          72 343 -10 callsubr
          -186 -884 rmoveto
          -19 13 -8 14 29 5 30 0 vhcurveto
          77 381 -10 callsubr
          endchar
        </CharString>
        <CharString name="bullet">
          -43 84 210 hstem
          165 250 vstem
          355 294 rmoveto
          -118 -72 -122 -17 -28 13 -43 59 76 102 81 71 29 -15 29 -45 hvcurveto
          endchar
        </CharString>
        <CharString name="c">
          -125 -17 69 89 182 -95 95 hstemhm
          7 159 hintmask 10110000
          429 158 -17 callgsubr
          -31 -55 -128 -86 -37 hhcurveto
          -13 -5 7 9 41 115 119 48 3 3 -1 -2 -12 -47 -40 -12 -6 hvcurveto
          -7 -4 -3 -5 -5 vvcurveto
          hintmask 11010000
          -15 callsubr
          -39 42 -35 41 93 245 156 19 1 vhcurveto
          endchar
        </CharString>
        <CharString name="caron">
          304 -21 194 -20 hstem
          71 438 -87 callsubr
        </CharString>
        <CharString name="ccedilla">
          -96 -127 179 -69 69 89 182 -95 95 hstemhm
          36 159 hintmask 10011000
          458 158 -17 callgsubr
          -31 -55 -128 -86 -37 hhcurveto
          -13 -5 7 9 41 115 119 48 3 3 -1 -2 -12 -47 -40 -12 -6 hvcurveto
          -7 -4 -3 -5 -5 vvcurveto
          hintmask 10101000
          -15 callsubr
          -25 16 -23 23 -13 vhcurveto
          -3 vlineto
          -52 callgsubr
          hintmask 01101000
          -17 11 -4 5 8 vvcurveto
          93 245 156 19 1 hvcurveto
          endchar
        </CharString>
        <CharString name="cedilla">
          -125 -106 -21 137 -20 hstem
          133 86 vstem
          138 10 rmoveto
          -3 -1 callgsubr
          -52 callgsubr
          -18 12 -3 5 9 5 2 5 2 vvcurveto
          endchar
        </CharString>
        <CharString name="cent">
          -125 245 -21 358 95 120 -20 hstem
          135 159 vstem
          557 512 -17 callgsubr
          -31 -55 -128 -86 -37 hhcurveto
          -13 -5 7 9 41 115 119 48 3 3 -1 -2 -12 -47 -40 -12 -6 hvcurveto
          -7 -4 -3 -5 -5 vvcurveto
          -21 callsubr
          -6 -6 0 -1 -6 vhcurveto
          21 51 14 37 8 4 callsubr
          -3 -5 -18 -42 -25 -57 rrcurveto
          -103 -41 -121 -108 -99 vvcurveto
          -39 42 -35 41 vhcurveto
          2 hlineto
          -17 -38 -10 -25 0 vvcurveto
          -10 callgsubr
          6 11 20 42 25 57 111 37 167 109 1 16 rrcurveto
          endchar
        </CharString>
        <CharString name="circumflex">
          306 194 hstem
          325 306 -102 callgsubr
        </CharString>
        <CharString name="colon">
          -154 -16 145 0 79 152 -20 hstemhm
          64 172 -65 166 hintmask 10110000
          195 129 -71 callsubr
          hintmask 01101000
          142 194 -26 callsubr
        </CharString>
        <CharString name="comma">
          -178 -101 242 hstem
          -44 callgsubr
          endchar
        </CharString>
        <CharString name="copyright">
          312 -48 72 79 48 219 177 -89 89 96 72 hstemhm
          -3 77 66 131 425 77 hintmask 11011111
          -66 callgsubr
          117 -185 rmoveto
          4 3 0 -3 -3 0 -2 -3 -3 hvcurveto
          -12 -16 -24 -24 -6 -6 rrcurveto
          -3 -4 -6 -10 -8 vvcurveto
          hintmask 11101111
          -7 7 -2 10 30 71 68 52 32 -28 25 -83 -132 -247 -96 -224 -92 43 -32 53 99 119 107 23 4 -1 5 -4 2 vhcurveto
          3 -3 -3 0 -4 -15 -105 -96 -34 hhcurveto
          -6 -8 3 9 hvcurveto
          hintmask 11011111
          102 226 193 62 vhcurveto
          endchar
        </CharString>
        <CharString name="currency">
          167 126 -21 23 101 270 40 26 -20 hstem
          145 148 184 48 vstem
          432 172 rmoveto
          34 -30 27 -28 14 -2 rrcurveto
          2 hlineto
          7 5 7 5 2 hvcurveto
          4 0 4 -2 vhcurveto
          -55 77 rlineto
          38 49 21 65 59 vvcurveto
          26 -4 25 -8 22 vhcurveto
          28 28 47 49 13 vvcurveto
          11 -7 9 -10 -15 -39 -35 -31 -30 vhcurveto
          25 -22 -31 15 -41 hhcurveto
          -54 -46 -18 -29 -39 hvcurveto
          31 -22 -27 35 -9 hhcurveto
          -11 -12 0 -15 -16 22 -37 22 -31 hvcurveto
          -46 -51 -26 -67 -60 vvcurveto
          -38 10 -35 22 -27 vhcurveto
          -18 -29 -15 -24 -10 vvcurveto
          -9 10 -4 7 3 3 1 1 1 vhcurveto
          43 45 rlineto
          -15 25 33 -9 41 hhcurveto
          48 41 18 27 33 hvcurveto
          -139 143 rmoveto
          108 68 75 51 45 20 -42 -52 -78 -46 -98 -72 -36 -30 29 58 vhcurveto
          endchar
        </CharString>
        <CharString name="d">
          -5 -50 162 -93 93 123 107 344 -20 hstemhm
          hintmask 10110000
          231 72 rmoveto
          3 2 -1 -3 hvcurveto
          -5 -12 -27 -23 vvcurveto
          -32 31 -31 29 6 6 2 4 5 vhcurveto
          20 20 166 230 13 19 47 70 291 271 11 42 -1 37 -21 38 -22 3 rrcurveto
          -57 -231 -247 -112 -92 hvcurveto
          -1 -1 0 -1 vhcurveto
          -2 hlineto
          -8 -16 16 -45 hhcurveto
          -101 -207 -121 -140 hvcurveto
          hintmask 01110000
          -25 18 -37 44 vhcurveto
          45 64 53 16 hhcurveto
          103 163 rmoveto
          5 5 -3 -4 -12 -92 -104 -41 -6 -2 4 5 21 101 93 30 hvcurveto
          endchar
        </CharString>
        <CharString name="dagger">
          -32 -6 -21 366 51 135 -20 hstem
          250 339 rmoveto
          125 hlineto
          3 14 15 17 16 -13 3 -36 hvcurveto
          -21 -26 -1 -39 hhcurveto
          18 115 rlineto
          4 -14 14 -12 3 vhcurveto
          -3 hlineto
          -18 -2 -39 -97 -14 hvcurveto
          -70 -1 -62 -2 -6 -7 rrcurveto
          -2 -4 -1 -3 -4 vvcurveto
          -15 11 -15 10 vhcurveto
          113 hlineto
          -8 -52 -37 -275 -21 vvcurveto
          -11 7 -6 7 8 17 6 12 2 vhcurveto
          endchar
        </CharString>
        <CharString name="degree">
          405 57 104 75 hstem
          131 99 110 46 vstem
          323 641 rmoveto
          -105 -87 -102 -69 -36 25 -29 59 45 126 47 121 0 -2 68 -61 hvcurveto
          -68 -179 rmoveto
          -14 -11 25 10 27 35 42 29 33 13 -13 -16 -31 -45 -44 -40 hvcurveto
          endchar
        </CharString>
        <CharString name="dieresis">
          -227 335 145 -132 -21 hstemhm
          hintmask 10000000
          78 335 -107 callgsubr
          hintmask 01000000
          151 -8 -107 callgsubr
          endchar
        </CharString>
        <CharString name="divide">
          142 92 145 0 161 -120 71 201 -20 hstemhm
          178 172 -60 166 hintmask 10111000
          549 279 rmoveto
          16 callsubr
          -24 -414 0 -18 -10 hvcurveto
          -71 callgsubr
          231 -41 -71 callsubr
          hintmask 01010100
          147 276 -26 callsubr
        </CharString>
        <CharString name="dollar">
          296 -109 -21 94 208 157 54 130 188 144 -20 hstem
          200 -80 rmoveto
          -10 callgsubr
          4 7 17 36 23 50 193 41 208 118 1 117 rrcurveto
          33 -13 70 -112 16 vhcurveto
          -33 4 -32 3 -28 1 15 34 15 35 15 33 rrcurveto
          17 53 52 12 28 hhcurveto
          12 8 -3 -6 hvcurveto
          -24 -44 -25 -25 vvcurveto
          -9 9 -10 9 44 110 159 37 66 -67 28 -94 -8 -9 0 -1 -8 vhcurveto
          29 67 19 46 7 4 callsubr
          -2 -4 -21 -46 -30 -66 rrcurveto
          -197 -26 -247 -114 -117 vvcurveto
          -63 54 -45 73 -1 vhcurveto
          34 -1 63 -2 54 -1 -20 -43 -19 -44 -18 -40 -41 -13 -48 -9 -58 -4 -36 2 -66 -2 -28 28 rrcurveto
          -25 -10 -68 -29 -63 vvcurveto
          -96 82 -38 110 24 25 2 4 26 vhcurveto
          -13 -28 -9 -22 0 vvcurveto
          249 405 rmoveto
          25 13 -2 -16 2 hvcurveto
          -4 -18 -31 -36 -64 -30 15 33 15 34 16 35 rrcurveto
          -93 74 rmoveto
          16 44 24 56 22 vhcurveto
          -12 -26 -12 -26 -11 -26 rrcurveto
          -40 2 -25 2 12 vvcurveto
          endchar
        </CharString>
        <CharString name="dotaccent">
          -177 380 14 callsubr
          525 -71 callsubr
          endchar
        </CharString>
        <CharString name="dotlessi">
          -205 -5 -21 312 -20 hstem
          -30 callsubr
          endchar
        </CharString>
        <CharString name="e">
          -3 callsubr
          184 -20 -83 callsubr
          endchar
        </CharString>
        <CharString name="eacute">
          -97 -17 64 528 3 callgsubr
          67 89 -89 237 hintmask 11100010
          -28 callgsubr
          hintmask 11000110
          -48 callgsubr
          hintmask 11010010
          -88 callgsubr
          hintmask 11001010
          -2 callsubr
          hintmask 11100001
          -82 callsubr
          416 501 -100 callgsubr
        </CharString>
        <CharString name="ecircumflex">
          -3 callsubr
          168 194 -83 callsubr
          307 320 -102 callgsubr
        </CharString>
        <CharString name="edieresis">
          -3 callsubr
          217 145 -27 callgsubr
          hintmask 10110000
          -23 callsubr
          -27 callsubr
          hintmask 01101000
          28 -16 6 -18 vhcurveto
          -17 -19 -5 -13 hhcurveto
          -89 callsubr
          80 369 -106 callgsubr
        </CharString>
        <CharString name="egrave">
          -3 callsubr
          388 3 callgsubr
          -71 227 hintmask 10110001
          -60 callsubr
          hintmask 10101001
          -88 callgsubr
          hintmask 10100101
          -2 callsubr
          hintmask 10110001
          -82 callsubr
          90 540 -95 callsubr
        </CharString>
        <CharString name="eight">
          244 -46 224 385 196 hstem
          -62 151 30 163 363 125 vstem
          303 363 rmoveto
          -41 -7 -324 -130 -129 vvcurveto
          -103 83 -40 116 227 336 154 152 35 -14 73 -118 17 vhcurveto
          -12 6 -25 3 -29 2 rrcurveto
          120 52 148 92 125 vvcurveto
          52 -39 42 -120 -194 -298 -127 -129 -26 15 -79 78 -18 vhcurveto
          99 -15 rlineto
          -5 -1 -3 -1 0 vvcurveto
          154 -19 rmoveto
          27 12 -13 -16 2 hvcurveto
          -7 -34 -149 -88 -223 -15 rrcurveto
          -14 -16 5 15 28 172 79 93 43 hvcurveto
          4 11 2 4 16 hvcurveto
          -103 88 rmoveto
          37 1 259 84 80 hhcurveto
          14 9 -4 -7 -50 -134 -61 -100 -39 hvcurveto
          -67 4 -62 9 27 vvcurveto
          endchar
        </CharString>
        <CharString name="ellipsis">
          278 -19 145 -118 -21 22 -21 146 -20 hstemhm
          64 172 52 164 50 180 hintmask 10001110
          195 126 -71 callsubr
          hintmask 01011110
          218 8 rmoveto
          -78 -47 -85 -12 -20 9 -30 38 50 67 57 50 20 -10 20 -29 hvcurveto
          226 -9 rmoveto
          -86 -51 -79 -12 hvcurveto
          hintmask 00111110
          -18 9 -28 42 56 73 53 46 19 -10 19 -33 vhcurveto
          endchar
        </CharString>
        <CharString name="emdash">
          262 278 -5 callsubr
          655 279 -1 callsubr
          -87 1 -95 hhcurveto
          -132 -252 -3 -13 -12 hvcurveto
          -71 callgsubr
          endchar
        </CharString>
        <CharString name="endash">
          -81 278 -5 callsubr
          337 279 rmoveto
          3 10 11 27 23 -11 6 -7 hvcurveto
          hintmask 10000000
          -11 -43 1 -48 hhcurveto
          -66 -126 -3 -13 -6 hvcurveto
          -2 -6 -1 -6 -6 vvcurveto
          -26 10 -9 9 vhcurveto
          endchar
        </CharString>
        <CharString name="equal">
          97 216 71 -51 -21 130 71 hstemhm
          hintmask 01100000
          489 215 -36 callsubr
          hintmask 10100000
          -22 -47 5 -41 callsubr
          hintmask 01100000
          482 126 -36 callsubr
          -22 -47 5 -41 callsubr
          endchar
        </CharString>
        <CharString name="eth">
          -118 -22 68 707 -20 hstemhm
          54 130 103 167 -73 73 hintmask 11110000
          483 534 rmoveto
          0 -5 -11 -24 -9 vhcurveto
          115 -31 96 -67 28 vhcurveto
          -63 -6 -6 -28 -17 vvcurveto
          -18 72 -5 18 -181 vhcurveto
          -1 -18 -21 -1 -25 hhcurveto
          -9 -13 -4 -14 -15 15 -4 10 hvcurveto
          hintmask 11101000
          13 25 2 4 27 hvcurveto
          -50 vlineto
          -47 -9 -27 0 vhcurveto
          -96 -6 -222 -110 -149 vvcurveto
          -72 38 -26 42 192 119 280 225 9 vhcurveto
          25 10 19 13 16 vvcurveto
          7 -5 5 -10 vhcurveto
          -299 -469 rmoveto
          54 117 92 40 22 vhcurveto
          -101 -35 -50 -86 -59 hhcurveto
          -10 -3 9 10 hvcurveto
          endchar
        </CharString>
        <CharString name="exclam">
          -107 -37 159 578 -20 hstem
          215 49 vstem
          265 142 rmoveto
          35 255 421 84 10 -2 43 -43 hvcurveto
          -93 -17 -202 -429 -61 -4 callsubr
          -39 -20 rmoveto
          -121 -1 -118 0 hvcurveto
          -1 vlineto
          -16 3 11 -24 30 hhcurveto
          52 64 64 51 22 -10 22 -28 hvcurveto
          endchar
        </CharString>
        <CharString name="exclamdown">
          -54 -296 -21 578 159 hstem
          241 49 vstem
          240 241 rmoveto
          -35 -255 -421 -84 -10 2 -43 43 hvcurveto
          93 17 202 429 61 vvcurveto
          30 -24 21 -26 vhcurveto
          39 20 rmoveto
          121 1 118 0 hvcurveto
          1 vlineto
          16 -3 -11 24 -30 hhcurveto
          -52 -64 -64 -51 -22 10 -22 28 hvcurveto
          endchar
        </CharString>
        <CharString name="f">
          -198 -281 107 882 -20 hstem
          201 48 vstem
          194 94 -55 callgsubr
          256 153 rmoveto
          -54 callsubr
          vhcurveto
          -10 -129 -92 -29 -90 callgsubr
          209 111 23 vvcurveto
          endchar
        </CharString>
        <CharString name="fi">
          40 -281 107 148 195 539 -20 hstem
          201 48 vstem
          328 -24 callgsubr
          -80 -113 -117 -56 -90 callgsubr
          59 31 56 33 vhcurveto
          -45 -49 -33 -58 -45 -4 callsubr
          -134 120 -55 callgsubr
          386 224 -107 callgsubr
          endchar
        </CharString>
        <CharString name="five">
          287 -49 219 378 198 hstem
          124 157 vstem
          457 325 rmoveto
          26 13 -3 -16 1 hvcurveto
          -9 -34 13 -87 -224 -15 -38 2 -70 -2 -28 29 -27 -11 -74 -30 -7 -81 rrcurveto
          -90 81 -36 110 227 244 147 153 48 -17 62 -104 15 vhcurveto
          -115 17 -178 25 76 vvcurveto
          44 5 312 10 74 hhcurveto
          13 8 -3 -5 hvcurveto
          -2 -26 -48 -27 -3 -26 rrcurveto
          -9 8 -11 10 46 134 167 47 64 -67 27 -95 -214 -338 -3 -143 -152 160 -123 173 vhcurveto
          endchar
        </CharString>
        <CharString name="fl">
          213 -281 107 170 62 -62 173 346 80 113 -20 hstemhm
          201 48 119 17 callsubr
          hintmask 10111111
          597 -33 callsubr
          -157 -276 -214 -181 -88 vhcurveto
          -12 -42 -66 -19 -20 -90 callgsubr
          78 22 60 23 vhcurveto
          -7 -22 -4 -20 -19 vvcurveto
          -49 callgsubr
          hintmask 11011111
          -51 callgsubr
          -9 -4 5 8 38 77 104 0 hvcurveto
          -403 -119 -55 callgsubr
          719 421 -61 callsubr
        </CharString>
        <CharString name="four">
          285 -71 -21 201 167 464 -20 hstem
          295 224 vstem
          308 292 rmoveto
          0 211 243 76 vvcurveto
          90 -69 39 -65 -66 14 -9 -95 -38 vhcurveto
          -78 -279 -218 -99 vvcurveto
          -52 34 -80 77 vhcurveto
          124 184 162 29 hhcurveto
          2 0 -1 -1 -27 -84 -96 -24 -42 hvcurveto
          -18 -32 -17 -32 -33 vvcurveto
          -29 30 -70 42 29 11 66 110 61 vhcurveto
          74 134 173 256 52 77 25 38 54 63 3 43 rrcurveto
          29 -4 -20 6 -12 hhcurveto
          -12 -11 -7 -8 -8 hvcurveto
          -213 -180 -278 -226 -35 hhcurveto
          -5 -3 4 12 -1 hvcurveto
          endchar
        </CharString>
        <CharString name="foursuperior">
          19 255 -21 500 -20 hstem
          235 140 vstem
          250 470 rmoveto
          0 125 141 45 vvcurveto
          54 -47 24 -39 -40 8 -6 -57 -22 vhcurveto
          -47 -168 -130 -60 vvcurveto
          -31 27 -48 46 71 106 90 7 23 vhcurveto
          2 1 0 -4 hvcurveto
          -5 -19 -47 -53 -13 -24 rrcurveto
          -11 -19 -10 -21 -18 vvcurveto
          -18 35 -42 26 17 7 40 66 36 vhcurveto
          45 80 103 154 32 46 15 23 32 38 2 26 rrcurveto
          17 -3 -29 4 -7 hhcurveto
          -7 -7 -5 -4 -4 hvcurveto
          -128 -108 -165 -131 -21 21 callsubr
          3 7 -1 hvcurveto
          endchar
        </CharString>
        <CharString name="fraction">
          98 -17 -21 763 -20 hstem
          43 -74 callsubr
          endchar
        </CharString>
        <CharString name="g">
          5 callsubr
          38 150 61 166 vstem
          -5 callgsubr
          -132 -319 -142 -21 -81 hvcurveto
          -1 -3 0 -4 -3 vvcurveto
          -30 29 -36 13 204 261 456 115 -57 callgsubr
        </CharString>
        <CharString name="germandbls">
          83 -133 -21 73 190 185 46 141 190 hstemhm
          498 93 -45 45 hintmask 11110100
          81 -100 rmoveto
          0 290 581 144 29 2 -12 -8 -34 -140 -81 0 vhcurveto
          -19 -8 -7 -10 -9 vvcurveto
          -14 15 -11 16 vhcurveto
          4 hlineto
          4 10 16 2 17 hhcurveto
          hintmask 11111000
          27 13 -16 -23 -56 -73 -96 -104 hvcurveto
          -38 -25 15 -3 hhcurveto
          -17 -2 -27 -53 -49 vvcurveto
          -81 85 -20 29 74 192 70 199 125 -76 27 -44 vhcurveto
          -4 1 -3 1 2 vvcurveto
          4 5 5 4 3 vhcurveto
          79 47 48 47 90 vvcurveto
          41 -26 90 -110 -55 -430 -603 -160 -27 8 -35 26 12 17 11 43 39 vhcurveto
          endchar
        </CharString>
        <CharString name="grave">
          346 -21 181 -20 hstem
          60 218 vstem
          104 506 -95 callsubr
        </CharString>
        <CharString name="greater">
          97 120 -21 464 -20 hstem
          443 371 rmoveto
          -382 -179 rlineto
          -4 -4 -12 -16 -24 vvcurveto
          -37 16 -12 14 3 79 32 61 128 vhcurveto
          149 70 122 63 28 vvcurveto
          41 -19 11 -15 9 callsubr
          97 -18 callgsubr
        </CharString>
        <CharString name="greaterequal">
          97 45 71 -49 -21 517 -20 hstemhm
          hintmask 10100000
          416 116 -40 callgsubr
          27 235 rmoveto
          -403 -120 rlineto
          -9 -9 -5 -17 -17 vvcurveto
          -20 8 -19 22 27 371 147 33 86 vhcurveto
          11 4 3 6 7 vvcurveto
          18 -26 21 -6 9 callsubr
          117 -18 callgsubr
        </CharString>
        <CharString name="guillemotleft">
          7 9 -21 334 -60 callgsubr
          169 -13 rmoveto
          26 21 86 39 7 12 rrcurveto
          19 -1 82 -15 vhcurveto
          -23 -5 -160 -134 -20 vvcurveto
          -1 vlineto
          -46 9 111 -115 27 hhcurveto
          9 2 2 32 23 vvcurveto
          29 -14 17 -64 45 vhcurveto
          endchar
        </CharString>
        <CharString name="guillemotright">
          7 9 -21 334 -20 hstem
          394 161 rmoveto
          -27 -21 -87 -37 -5 -13 rrcurveto
          -1 -3 -1 -9 -11 vvcurveto
          -31 6 -48 13 20 159 138 20 2 vhcurveto
          1 vlineto
          46 -8 -112 116 -25 hhcurveto
          -10 -2 -2 -29 -22 vvcurveto
          -34 12 -14 66 -47 vhcurveto
          -169 13 -50 callgsubr
        </CharString>
        <CharString name="guilsinglleft">
          -134 22 -21 321 -60 callgsubr
          endchar
        </CharString>
        <CharString name="guilsinglright">
          -140 22 -21 321 -20 hstem
          225 174 -50 callgsubr
        </CharString>
        <CharString name="h">
          33 -30 62 -15 -21 675 -20 hstemhm
          269 135 hintmask 10110000
          346 -30 rmoveto
          66 134 97 15 -79 callsubr
          hvcurveto
          -6 -11 -70 -55 -26 hhcurveto
          -6 -4 4 7 hvcurveto
          26 145 138 31 vvcurveto
          23 -38 8 -15 -33 -23 0 -65 -118 vhcurveto
          15 callgsubr
          -1 -2 21 callsubr
          10 callsubr
          3 3 4 hvcurveto
          44 73 239 267 67 vvcurveto
          28 -27 21 -21 -69 -449 -453 -160 vhcurveto
          hintmask 01110000
          -27 11 -35 32 15 21 11 43 49 vhcurveto
          62 55 90 65 20 8 rrcurveto
          1 3 4 2 3 1 callgsubr
          21 callgsubr
          -3 -5 -5 hvcurveto
          -20 -23 -49 -64 -39 vvcurveto
          hintmask 10110000
          -40 25 -32 52 vhcurveto
          endchar
        </CharString>
        <CharString name="hungarumlaut">
          349 -21 191 -20 hstemhm
          247 218 -50 218 hintmask 11100000
          421 519 rmoveto
          -64 -110 -112 -54 -10 6 -4 -18 callsubr
          168 -10 rmoveto
          hintmask 11010000
          -65 -109 -112 -54 -12 6 -2 -18 callsubr
          endchar
        </CharString>
        <CharString name="hyphen">
          151 138 -5 callsubr
          579 139 -1 callsubr
          -87 1 -41 callsubr
          endchar
        </CharString>
        <CharString name="i">
          -227 -5 -21 489 -20 hstem
          -70 callsubr
          252 344 -107 callgsubr
          endchar
        </CharString>
        <CharString name="iacute">
          -227 -5 -21 514 -20 hstem
          295 246 vstem
          -70 callsubr
          475 487 -100 callgsubr
        </CharString>
        <CharString name="icircumflex">
          -205 -5 -21 316 194 hstem
          -70 callsubr
          324 316 -102 callgsubr
        </CharString>
        <CharString name="idieresis">
          -227 -5 -21 361 145 hstem
          -70 callsubr
          170 361 -106 callgsubr
        </CharString>
        <CharString name="igrave">
          -205 -5 -21 532 -20 hstem
          133 218 vstem
          -30 callsubr
          116 532 -95 callsubr
        </CharString>
        <CharString name="j">
          -198 -260 -21 639 161 hstemhm
          -234 57 262 248 -171 171 -26 159 hintmask 11110000
          290 327 rmoveto
          0 -205 -81 -27 vvcurveto
          -11 14 -9 9 vhcurveto
          14 21 16 11 hhcurveto
          hintmask 11101000
          6 2 -3 -5 -25 -315 -371 -22 -1 -1 1 2 hvcurveto
          25 53 73 13 vvcurveto
          8 -8 6 -8 -7 -8 -4 -4 -5 vhcurveto
          -50 -44 -24 -68 -24 vvcurveto
          -67 69 -9 33 198 267 527 29 15 -18 37 -25 vhcurveto
          138 192 rmoveto
          hintmask 11100100
          -76 -45 -94 -13 -21 8 -33 37 49 65 62 54 23 -9 22 -29 hvcurveto
          endchar
        </CharString>
        <CharString name="k">
          -13 -76 236 102 55 348 -20 hstem
          442 79 vstem
          623 577 rmoveto
          6 10 3 9 10 vvcurveto
          16 -11 43 -21 -123 -449 -465 -124 -40 36 -26 30 29 66 80 18 18 vhcurveto
          5 5 4 3 2 hhcurveto
          3 1 -5 -5 -83 94 -99 93 54 10 24 16 hvcurveto
          32 -127 124 20 vvcurveto
          50 21 125 54 61 vvcurveto
          26 -15 15 -27 vhcurveto
          -39 -39 -25 -17 hhcurveto
          -4 -2 3 3 hvcurveto
          50 -36 rmoveto
          11 3 -6 -7 -42 -128 -47 -36 -6 -4 1 3 8 111 90 49 hvcurveto
          endchar
        </CharString>
        <CharString name="l">
          -125 14 callgsubr
          30 17 callsubr
          hintmask 01111000
          259 -33 callsubr
          -188 -361 -308 -190 -39 callsubr
          38 77 104 0 hvcurveto
          316 302 -61 callsubr
        </CharString>
        <CharString name="less">
          97 118 -21 464 -20 hstem
          153 289 rmoveto
          382 179 2 callsubr
          -2 -1 -79 -32 -128 -60 rrcurveto
          -149 -71 -123 -62 -28 -7 callgsubr
          -97 -16 callsubr
          endchar
        </CharString>
        <CharString name="lessequal">
          97 45 71 -49 -21 515 -20 hstemhm
          hintmask 10100000
          154 318 rmoveto
          381 150 2 callsubr
          -36 -9 -444 -207 -9 -7 callgsubr
          -78 -16 callsubr
          -53 -89 -40 callgsubr
          endchar
        </CharString>
        <CharString name="logicalnot">
          137 102 -21 197 70 hstem
          498 82 vstem
          498 348 -66 callsubr
          32 326 1 75 hhcurveto
          -10 -73 -7 -64 -31 -24 callsubr
          13 66 18 71 66 vvcurveto
          6 callsubr
        </CharString>
        <CharString name="lslash">
          14 callgsubr
          102 17 callsubr
          hintmask 01111000
          331 -33 callsubr
          -157 -278 -215 -182 -87 vhcurveto
          -20 2 -21 3 -22 4 rrcurveto
          1 -3 -5 0 -4 hhcurveto
          -11 -12 -3 -12 -1 hvcurveto
          -16 33 -9 52 -5 vhcurveto
          -8 -23 -5 -22 -21 vvcurveto
          -39 callsubr
          20 20 37 20 32 hvcurveto
          53 2 41 7 3 17 rrcurveto
          7 -6 6 -13 2 vhcurveto
          0 -16 -7 -41 -3 vhcurveto
          8 12 8 10 0 vvcurveto
          316 302 -61 callsubr
        </CharString>
        <CharString name="m">
          167 -23 93 -79 194 117 -20 hstemhm
          430 143 -143 192 hintmask 01101000
          13 57 rmoveto
          -26 19 -26 26 38 110 86 26 32 vhcurveto
          3 4 3 1 2 hhcurveto
          3 1 -2 -3 -3 -1 -3 12 callgsubr
          -8 -10 -22 -35 -23 vvcurveto
          -18 12 -30 31 50 119 121 8 17 vhcurveto
          2 3 3 1 3 1 callgsubr
          -22 callsubr
          -2 -4 hvcurveto
          -11 -12 -15 -34 -19 vvcurveto
          hintmask 10101000
          -50 35 -20 40 54 63 36 46 6 -3 5 -10 -13 -3 -9 -2 -13 vhcurveto
          hintmask 01110000
          -5 -2 4 4 hvcurveto
          23 102 101 33 vvcurveto
          20 -16 33 -30 vhcurveto
          -42 -81 -92 -23 hhcurveto
          -3 -3 10 callsubr
          2 2 3 hvcurveto
          13 20 25 22 20 vvcurveto
          26 -21 16 -25 vhcurveto
          -68 -116 -119 -17 hhcurveto
          -2 -1 2 2 2 1 2 2 3 hvcurveto
          5 8 30 29 30 vvcurveto
          29 -24 14 -22 -12 -12 -3 -4 -9 vhcurveto
          0 -214 -135 -103 vvcurveto
          endchar
        </CharString>
        <CharString name="macron">
          97 394 63 -47 -21 71 -20 hstemhm
          hintmask 01100000
          455 389 -1 callsubr
          27 1 -95 hhcurveto
          hintmask 01100000
          -77 -69 3 -47 hhcurveto
          -34 -22 -2 -5 -5 hvcurveto
          -71 callgsubr
          endchar
        </CharString>
        <CharString name="minus">
          137 277 71 -49 -21 hstemhm
          hintmask 10000000
          498 348 -66 callsubr
          hintmask 01000000
          -31 callgsubr
          hintmask 10000000
          6 callsubr
        </CharString>
        <CharString name="multiply">
          35 165 -21 388 -20 hstem
          149 491 rmoveto
          -23 27 -53 36 -58 vhcurveto
          -200 -158 rlineto
          -18 7 -19 18 17 125 90 55 65 vhcurveto
          47 -71 52 -68 21 -24 rrcurveto
          0 31 12 13 vvcurveto
          9 -52 84 -52 86 vhcurveto
          78 66 70 46 33 vvcurveto
          12 -4 4 -5 -12 -84 -63 -52 -71 vhcurveto
          -72 134 rlineto
          3 -1 -1 1 -2 hhcurveto
          -6 -32 -35 -6 hvcurveto
          endchar
        </CharString>
        <CharString name="n">
          1 -6 -21 350 -20 hstemhm
          250 148 -148 204 hintmask 11010000
          -65 callsubr
          hintmask 11100000
          -64 callgsubr
          endchar
        </CharString>
        <CharString name="nine">
          335 -63 196 127 66 212 212 hstemhm
          43 95 -46 65 -65 208 380 137 hintmask 11110010
          166 133 rmoveto
          -18 -10 5 13 hvcurveto
          hintmask 11101010
          16 19 20 17 vvcurveto
          14 -10 14 -15 1 vhcurveto
          hintmask 11110010
          -28 -61 -88 -80 -79 54 -49 134 398 188 286 233 160 -89 134 -169 hvcurveto
          hintmask 11100110
          -204 -263 -144 -151 -142 92 -53 115 113 136 50 66 96 hvcurveto
          -113 -69 -166 -130 -243 hhcurveto
          216 193 rmoveto
          -50 -32 16 29 62 141 105 182 39 18 -23 -35 -17 -4 -19 -8 -20 hvcurveto
          -67 -107 -108 -31 -71 hhcurveto
          endchar
        </CharString>
        <CharString name="ntilde">
          1 -6 -21 366 7 callgsubr
          250 148 -148 204 hintmask 10101000
          -65 callsubr
          hintmask 11010000
          -64 callgsubr
          591 343 -63 callsubr
          hintmask 10110000
          -93 callsubr
        </CharString>
        <CharString name="numbersign">
          188 78 241 -64 64 -51 57 35 80 -67 67 212 -20 hstemhm
          hintmask 01010100
          -6 307 rmoveto
          -9 -27 -3 -22 -27 30 0 48 hvcurveto
          10 1 rlineto
          67 hlineto
          -37 -72 -28 -56 0 vvcurveto
          -3 -4 -3 -7 -8 vvcurveto
          hintmask 10010100
          -12 10 -19 16 33 16 37 143 77 vhcurveto
          137 5 rlineto
          -38 -76 -30 -59 0 vvcurveto
          -69 callsubr
          31 17 32 118 62 vhcurveto
          20 39 rlineto
          hintmask 00101100
          14 1 rlineto
          139 6 35 2 21 vvcurveto
          26 -35 5 -21 -6 -42 -1 -2 -53 vhcurveto
          8 15 8 16 8 16 15 1 rcurveline
          139 6 37 2 21 vvcurveto
          32 -40 -13 -16 12 vhcurveto
          5 -7 -39 2 -54 hhcurveto
          48 95 38 80 12 -72 callsubr
          -5 -7 -42 -80 -47 -92 -44 -1 -47 -2 -45 -2 rrcurveto
          49 97 40 84 12 -72 callsubr
          -6 -8 -43 -84 -50 -97 rrcurveto
          -85 -5 -64 -7 -5 vvcurveto
          -9 -27 -3 -22 hvcurveto
          hintmask 10010100
          -27 33 0 35 vhcurveto
          7 hlineto
          20 26 0 1 29 hvcurveto
          -8 -17 -8 -15 -8 -16 rrcurveto
          -84 -4 -64 -2 0 vvcurveto
          391 61 rmoveto
          -8 -16 -8 -15 -8 -15 -137 -6 rcurveline
          8 16 9 16 8 15 rrcurveto
          endchar
        </CharString>
        <CharString name="o">
          -29 callgsubr
          122 -20 -96 callsubr
          endchar
        </CharString>
        <CharString name="oacute">
          -29 callgsubr
          299 -20 hstemhm
          33 130 170 40 -40 237 hintmask 11111000
          -106 callsubr
          402 417 -25 callsubr
          hintmask 11110100
          -86 callgsubr
        </CharString>
        <CharString name="ocircumflex">
          -29 callgsubr
          114 194 -96 callsubr
          254 259 -102 callgsubr
        </CharString>
        <CharString name="odieresis">
          -29 callgsubr
          167 145 -96 callsubr
          83 312 -106 callgsubr
        </CharString>
        <CharString name="oe">
          69 -22 69 -69 221 -195 -21 400 -20 hstemhm
          33 130 hintmask 10011000
          361 -34 callsubr
          -27 callsubr
          hintmask 01011000
          -43 callgsubr
          -57 -78 -25 -37 -58 vhcurveto
          -15 6 -17 3 -15 2 rrcurveto
          -61 callgsubr
          38 34 15 22 30 hvcurveto
          hintmask 00111000
          -18 10 18 -14 33 hhcurveto
          -34 callgsubr
          hvcurveto
          -54 callsubr
          vhcurveto
          hintmask 10011000
          -51 callgsubr
          -185 -1 rmoveto
          -10 -3 9 10 47 69 63 40 27 hvcurveto
          15 -21 34 -3 -11 vvcurveto
          -12 -106 -47 -8 -47 vhcurveto
          -9 -8 -9 -6 -14 hhcurveto
          endchar
        </CharString>
        <CharString name="ogonek">
          -97 -120 39 110 -20 hstem
          131 65 vstem
          217 28 rmoveto
          -61 -49 -25 -39 -25 vvcurveto
          -23 20 -12 31 31 42 12 26 46 vhcurveto
          5 3 3 4 4 vvcurveto
          5 -4 4 -7 3 vhcurveto
          -13 -34 -29 -9 -18 hhcurveto
          -14 -7 5 13 15 11 26 27 42 hvcurveto
          8 -8 -5 1 -2 hhcurveto
          -2 0 -1 0 hvcurveto
          endchar
        </CharString>
        <CharString name="ograve">
          -29 callgsubr
          329 -20 hstem
          33 130 9 218 vstem
          -106 callsubr
          53 474 -95 callsubr
        </CharString>
        <CharString name="one">
          -55 -77 -21 836 -20 hstem
          14 -23 rmoveto
          -42 13 48 -33 38 hhcurveto
          7 7 1 2 6 hvcurveto
          88 37 192 659 86 vvcurveto
          27 -45 24 -33 -7 -7 -1 -2 -6 vhcurveto
          -45 -19 -264 -456 -224 vvcurveto
          -22 2 -20 6 -17 vhcurveto
          endchar
        </CharString>
        <CharString name="onehalf">
          361 -51 -21 82 -21 24 -21 126 185 434 -20 hstemhm
          hintmask 10111000
          -73 callsubr
          648 101 -11 callgsubr
          -25 callgsubr
          71 101 27 82 hhcurveto
          hintmask 11011000
          -58 callgsubr
          -768 -358 -74 callgsubr
        </CharString>
        <CharString name="onequarter">
          458 -51 -21 809 -20 hstem
          564 140 vstem
          -73 callsubr
          397 -49 -78 callgsubr
          -517 -208 -74 callgsubr
        </CharString>
        <CharString name="onesuperior">
          -93 256 -21 502 -20 hstem
          -73 callsubr
          endchar
        </CharString>
        <CharString name="ordfeminine">
          218 58 67 111 -111 225 119 -20 hstemhm
          63 168 31 212 hintmask 10111100
          124 358 rmoveto
          -91 callsubr
          -101 callgsubr
          hintmask 11011100
          -98 callsubr
          -22 callgsubr
          238 -50 rmoveto
          10 -2 5 -7 -10 vvcurveto
          -5 vlineto
          -53 -9 -112 -13 -83 hhcurveto
          -10 hlineto
          -58 -35 1 34 27 17 8 11 hvcurveto
          -9 51 39 -3 32 hhcurveto
          104 38 32 0 hvcurveto
          endchar
        </CharString>
        <CharString name="ordmasculine">
          -121 223 65 50 68 133 31 122 -20 hstemhm
          89 20 0 130 0 140 hintmask 11110100
          414 597 -105 callgsubr
          vhcurveto
          hintmask 11111010
          -67 callsubr
          hvcurveto
          129 -72 rmoveto
          12 7 -9 -12 -75 -214 -34 -53 -12 -19 7 27 24 17 7 11 196 55 65 0 hvcurveto
          endchar
        </CharString>
        <CharString name="oslash">
          -106 -43 -21 42 68 133 31 214 -20 hstem
          48 130 vstem
          36 -32 rmoveto
          -7 callsubr
          -5 -5 vvcurveto
          -8 6 -12 10 9 9 7 3 2 vhcurveto
          3 4 10 14 15 20 rrcurveto
          -4 9 11 -2 11 hhcurveto
          -98 callgsubr
          4 2 4 4 4 hvcurveto
          -70 callgsubr
          25 -23 12 -26 6 vhcurveto
          30 44 20 33 5 vvcurveto
          10 -10 6 -8 -13 -8 -13 -9 -8 vhcurveto
          -2 -3 -21 -28 -28 -40 rrcurveto
          -93 -11 -150 -100 -144 vvcurveto
          -30 6 -21 11 -16 vhcurveto
          -18 -24 -11 -17 0 vvcurveto
          142 97 rmoveto
          62 119 88 15 -67 callsubr
          vhcurveto
          endchar
        </CharString>
        <CharString name="otilde">
          -29 callgsubr
          146 7 callgsubr
          33 130 140 182 hintmask 11101100
          -106 callsubr
          329 365 -63 callsubr
          hintmask 11011100
          -93 callsubr
        </CharString>
        <CharString name="p">
          -44 13 callsubr
          -68 167 hstemhm
          392 111 hintmask 11101000
          -63 callgsubr
          46 105 1 16 rrcurveto
          hintmask 11011000
          4 callgsubr
          -459 -527 -33 callgsubr
        </CharString>
        <CharString name="paragraph">
          203 -56 -21 670 216 hstemhm
          211 87 -87 144 hintmask 11010000
          515 593 rmoveto
          12 11 -1 -3 10 hvcurveto
          -6 -6 -6 -7 -4 -6 rrcurveto
          -13 -18 -357 -579 0 vvcurveto
          -77 callsubr
          33 40 400 644 30 vvcurveto
          78 -106 78 -82 -131 -117 -236 -183 -93 28 -32 30 40 46 55 37 vhcurveto
          8 -1 -3 1 -4 -12 -24 -28 15 callsubr
          70 120 181 97 hvcurveto
          -231 -613 -79 callgsubr
          33 40 359 570 -55 callsubr
          -357 -579 0 vvcurveto
          endchar
        </CharString>
        <CharString name="parenleft">
          -27 63 166 vstem
          248 -74 rmoveto
          -22 58 -15 57 75 vvcurveto
          356 260 129 13 77 vhcurveto
          3 vlineto
          32 -47 34 -10 1 vhcurveto
          -3 hlineto
          -35 -86 -70 -33 -36 hvcurveto
          -134 -120 -80 -164 -175 vvcurveto
          -90 28 -161 90 -64 vhcurveto
          0 77 3 52 vvcurveto
          endchar
        </CharString>
        <CharString name="parenright">
          -33 35 166 vstem
          262 694 rmoveto
          22 -58 15 -57 -75 vvcurveto
          -356 -260 -129 -13 -77 vhcurveto
          -3 vlineto
          -32 47 -34 10 -1 vhcurveto
          3 hlineto
          35 86 70 33 36 hvcurveto
          134 120 80 164 175 vvcurveto
          90 -28 161 -90 64 vhcurveto
          0 -77 -3 -52 vvcurveto
          endchar
        </CharString>
        <CharString name="percent">
          430 -30 callgsubr
          hintmask 1110111111000000
          -82 callgsubr
          hintmask 1101111111000000
          -94 callgsubr
          endchar
        </CharString>
        <CharString name="period">
          -177 -16 145 hstem
          64 172 vstem
          195 129 -71 callsubr
          endchar
        </CharString>
        <CharString name="periodcentered">
          -177 129 14 callsubr
          274 -71 callsubr
          endchar
        </CharString>
        <CharString name="perthousand">
          825 -30 callgsubr
          -20 -2 callgsubr
          hintmask 1110111111010000
          -82 callgsubr
          hintmask 1101111111010000
          -94 callgsubr
          359 52 rmoveto
          23 -16 -19 5 -20 hhcurveto
          hintmask 1101111110110000
          -96 callgsubr
          endchar
        </CharString>
        <CharString name="pi">
          5 callsubr
          -5 callgsubr
          -2 -2 -4 -7 -6 hvcurveto
          -88 -82 -203 -175 -97 vvcurveto
          -33 36 -32 15 26 39 45 72 55 vhcurveto
          79 102 94 142 17 27 rrcurveto
          44 74 61 74 35 vvcurveto
          -57 callgsubr
        </CharString>
        <CharString name="plus">
          137 66 -21 234 70 225 -20 hstem
          335 279 -14 callgsubr
          29 193 rlineto
          6 -6 -12 callgsubr
          -30 -2 -64 -32 callsubr
          -9 -81 -36 -24 callsubr
          endchar
        </CharString>
        <CharString name="plusminus">
          183 45 71 -49 -21 280 70 178 -20 hstemhm
          267 231 hintmask 10111000
          342 326 -14 callgsubr
          22 146 rlineto
          6 -6 -12 callgsubr
          -30 5 -17 -32 callsubr
          -3 -32 -36 -24 callsubr
          98 -57 -66 callsubr
          hintmask 01111000
          -31 callgsubr
          hintmask 10111000
          6 callsubr
        </CharString>
        <CharString name="product">
          45 -217 -21 799 127 hstem
          328 150 rmoveto
          2 3 4 1 3 1 callgsubr
          0 -7 callsubr
          -3 -5 -5 hvcurveto
          -14 -15 -143 -130 -47 -71 -28 -44 -6 -32 -1 -21 rrcurveto
          -20 15 -46 42 20 9 2 93 77 vhcurveto
          77 92 103 136 25 36 38 55 61 79 5 7 rrcurveto
          5 6 27 51 19 vvcurveto
          15 -2 -14 16 -18 hhcurveto
          -27 -5 -27 -41 -60 hvcurveto
          -97 -142 -71 -40 -29 hhcurveto
          -10 -6 4 11 75 341 307 157 7 -101 -95 -28 -4 hvcurveto
          -4 4 -13 20 55 101 138 33 55 -79 41 -92 -96 -204 -21 -160 -185 vhcurveto
          -35 -30 -173 -161 -155 vvcurveto
          -104 6 57 -24 49 hhcurveto
          93 191 117 0 hvcurveto
          endchar
        </CharString>
        <CharString name="q">
          -78 -357 -21 388 -21 301 -20 hstem
          26 155 vstem
          342 290 rmoveto
          -100 -216 -100 -128 -37 42 -36 40 hvcurveto
          39 81 58 13 hhcurveto
          2 2 -1 -2 -2 -3 -4 -7 -5 hvcurveto
          -16 -14 -136 -100 -79 -88 rrcurveto
          -25 -27 -66 -81 -37 vvcurveto
          -32 3 26 -32 38 hhcurveto
          42 127 78 37 6 -4 6 -11 1 hvcurveto
          -2 -15 -42 -34 -12 hhcurveto
          -3 -1 1 2 1 -8 callgsubr
          2 hvcurveto
          5 8 94 122 7 8 23 25 191 228 15 17 rrcurveto
          9 10 6 9 8 vvcurveto
          4 -6 16 -11 -8 -10 -12 -12 -18 vhcurveto
          -30 -46 -89 -56 -33 hhcurveto
          -6 -4 3 7 33 126 71 44 8 hvcurveto
          48 9 38 12 13 vvcurveto
          18 -30 50 -65 vhcurveto
          endchar
        </CharString>
        <CharString name="question">
          45 -48 145 376 205 hstem
          125 172 vstem
          404 286 rmoveto
          0 225 140 98 vvcurveto
          110 -119 44 -63 -122 -134 -97 -86 -43 45 -66 39 -2 vhcurveto
          -1 18 102 90 111 hhcurveto
          11 12 -4 -14 4 hvcurveto
          -109 -104 -244 -74 -131 vvcurveto
          -9 21 -7 26 28 34 8 25 20 vhcurveto
          19 8 41 87 63 vhcurveto
          -148 -189 rmoveto
          31 10 -20 -20 -49 -70 -56 -53 -40 -9 30 19 12 49 84 82 hvcurveto
          endchar
        </CharString>
        <CharString name="questiondown">
          22 -350 204 376 145 hstem
          266 172 vstem
          159 41 rmoveto
          0 -225 -139 -98 vvcurveto
          -110 119 -44 63 123 134 96 87 43 -45 65 -39 2 vhcurveto
          1 -19 -102 -90 -110 hhcurveto
          -11 -13 5 13 -3 hvcurveto
          109 105 243 73 132 vvcurveto
          9 -21 7 -26 -28 -33 -9 -24 -20 vhcurveto
          0 2 -45 -98 -79 vhcurveto
          149 189 rmoveto
          82 48 85 12 19 -9 29 -39 -53 -71 -55 -49 -21 10 -20 32 hvcurveto
          endchar
        </CharString>
        <CharString name="quotedbl">
          8 -44 callsubr
          71 -227 -62 callsubr
          endchar
        </CharString>
        <CharString name="quotedblbase">
          11 -159 3 callsubr
          hintmask 10000000
          77 23 -72 callgsubr
        </CharString>
        <CharString name="quotedblleft">
          11 273 3 callsubr
          hintmask 01000000
          433 -41 callgsubr
          -172 -22 -38 callsubr
          hintmask 10000000
          -37 callgsubr
          endchar
        </CharString>
        <CharString name="quotedblright">
          11 273 3 callsubr
          hintmask 10000000
          186 455 -72 callgsubr
        </CharString>
        <CharString name="quoteleft">
          -204 295 242 hstem
          218 -41 callgsubr
          endchar
        </CharString>
        <CharString name="quoteright">
          -178 273 242 hstem
          186 455 -80 callgsubr
          endchar
        </CharString>
        <CharString name="quotesinglbase">
          -178 -159 242 hstem
          85 23 -80 callgsubr
          endchar
        </CharString>
        <CharString name="quotesingle">
          -206 -44 callsubr
          endchar
        </CharString>
        <CharString name="r">
          -160 -11 -21 405 -20 hstemhm
          73 161 -161 209 hintmask 11010000
          242 373 rmoveto
          -49 -14 -120 -102 -53 vvcurveto
          -19 16 -13 39 17 23 5 13 32 vhcurveto
          1 -1 0 -2 -1 vvcurveto
          -9 -14 -7 -7 -3 vhcurveto
          -57 -30 -48 -57 -48 vvcurveto
          -37 33 -27 39 46 89 50 43 6 -6 2 -5 vhcurveto
          -6 -18 -13 15 callsubr
          hvcurveto
          42 122 98 39 vvcurveto
          28 -28 17 -22 vhcurveto
          -22 -75 -35 -16 hhcurveto
          -4 -2 10 callsubr
          3 8 callgsubr
          42 48 13 16 rrcurveto
          7 9 3 7 6 vvcurveto
          10 -9 11 -10 vhcurveto
          endchar
        </CharString>
        <CharString name="registered">
          312 -48 72 -72 166 243 -20 27 63 93 191 -72 72 hstemhm
          -3 77 -77 145 284 134 -15 228 -173 173 -77 77 hintmask 1011011010010000
          -66 callgsubr
          hintmask 1011101010100000
          158 -222 rmoveto
          -50 -99 -43 -65 -10 vhcurveto
          -7 -2 -3 -2 -2 vvcurveto
          hintmask 0111101001000000
          -11 119 -126 -22 vvcurveto
          -18 -22 -17 -32 -75 -59 93 41 -31 vhcurveto
          -26 -15 -66 -67 -4 hhcurveto
          -4 -5 4 9 -6 hvcurveto
          5 11 72 102 -3 5 -17 9 11 16 56 2 2 vvcurveto
          0 0 0 -1 vhcurveto
          23 14 50 57 13 hhcurveto
          6 3 -4 -4 -12 -38 -46 -1 -4 hvcurveto
          hintmask 1011100110100000
          2 170 37 35 16 -27 6 -36 -98 -175 -43 -26 20 callsubr
          hvcurveto
          12 41 7 15 hhcurveto
          6 8 -4 -5 -3 -33 -22 -55 -35 -43 17 41 81 144 51 127 100 87 -30 -73 hvcurveto
          endchar
        </CharString>
        <CharString name="ring">
          360 136 -43 43 hstemhm
          133 177 -53 53 hintmask 10100000
          266 496 rmoveto
          -53 callsubr
          hintmask 01010000
          -23 callgsubr
          endchar
        </CharString>
        <CharString name="s">
          -134 -14 195 -34 34 71 97 hstemhm
          95 85 -85 224 hintmask 01110000
          -20 callsubr
          hintmask 10101000
          -6 callsubr
          hintmask 01110000
          -58 callsubr
          -58 65 -19 46 vhcurveto
          endchar
        </CharString>
        <CharString name="scaron">
          -134 -14 195 -34 202 -97 97 217 -20 hstemhm
          95 85 -85 224 hintmask 01011000
          -20 callsubr
          hintmask 10110100
          -6 callsubr
          hintmask 10111000
          -58 callsubr
          vhcurveto
          hintmask 01011000
          -58 65 -19 46 vhcurveto
          54 380 -87 callsubr
        </CharString>
        <CharString name="section">
          -134 7 -21 357 97 hstem
          95 215 vstem
          95 224 rmoveto
          -44 37 -22 38 -8 vhcurveto
          28 -26 -28 -15 -61 -14 -16 -2 rlinecurve
          -28 -5 -35 -10 -21 vvcurveto
          -31 56 -40 34 41 140 34 69 16 vhcurveto
          60 17 72 34 53 vvcurveto
          60 -45 19 -54 -36 callgsubr
          vhcurveto
          -59 callgsubr
          -87 -110 -44 -60 -21 vhcurveto
          -70 -20 -63 -42 -50 vvcurveto
          85 -34 rmoveto
          14 64 24 53 14 vhcurveto
          -3 13 14 -1 12 hhcurveto
          -14 callsubr
          -18 -3 rlineto
          -12 1 -13 2 6 vvcurveto
          endchar
        </CharString>
        <CharString name="semicolon">
          -178 -101 242 0 51 153 -20 hstemhm
          195 147 hintmask 10110000
          -44 callgsubr
          224 227 -4 callgsubr
          -22 -87 -13 vvcurveto
          hintmask 01110000
          -17 12 -28 41 vhcurveto
          51 5 43 59 52 vvcurveto
          endchar
        </CharString>
        <CharString name="seven">
          206 -24 -21 510 216 86 -20 hstem
          200 -45 rmoveto
          80 2 292 547 -75 callsubr
          -35 callsubr
          -415 -321 -119 -3 callgsubr
          endchar
        </CharString>
        <CharString name="six">
          300 -64 228 193 43 140 209 hstem
          2 183 335 219 vstem
          663 540 rmoveto
          -1 7 12 -1 13 hhcurveto
          33 43 11 59 112 -97 29 -81 -326 -265 -351 -242 -126 72 -94 173 215 277 144 151 54 -36 84 -130 19 hvcurveto
          -83 12 -118 -4 -72 4 rrcurveto
          75 81 125 65 157 hhcurveto
          -143 -225 rmoveto
          -1 vlineto
          -32 -112 -118 -192 -21 -10 15 23 39 25 59 49 57 vhcurveto
          105 -2 156 4 -44 vvcurveto
          endchar
        </CharString>
        <CharString name="slash">
          63 -51 -21 797 -20 hstem
          -41 -22 -79 callgsubr
          33 40 550 686 -55 callsubr
          -548 -695 0 vvcurveto
          endchar
        </CharString>
        <CharString name="space">
          -205 endchar
        </CharString>
        <CharString name="sterling">
          330 18 callsubr
          47 66 94 111 71 54 hstem
          -122 105 vstem
          683 351 rmoveto
          0 -1 44 -15 vhcurveto
          0 -20 -20 -54 -3 vhcurveto
          28 33 27 31 27 30 rrcurveto
          222 1 159 19 150 vvcurveto
          44 -32 18 -44 4 vhcurveto
          -92 -1 -86 -49 -83 -73 rrcurveto
          -2 -55 -66 0 -78 hhcurveto
          -27 -4 -19 -11 hvcurveto
          16 -69 50 -11 51 -1 -26 -29 -26 -30 -26 -31 -33 5 -40 11 -51 18 rrcurveto
          -10 -10 -8 -25 -2 hvcurveto
          -27 7 -15 11 -5 vhcurveto
          14 -5 29 -6 32 -5 -16 -20 -16 -20 -17 -19 -75 callgsubr
          17 19 16 20 16 19 rrcurveto
          -1 10 9 0 10 hhcurveto
          59 52 2 43 4 hvcurveto
          -700 -393 -38 callgsubr
          959 686 rmoveto
          -37 -43 -17 -105 -7 vhcurveto
          40 50 48 25 44 hhcurveto
          5 20 callgsubr
          endchar
        </CharString>
        <CharString name="t">
          -189 4 -21 395 72 144 -20 hstem
          87 403 rmoveto
          -22 18 -3 20 vhcurveto
          154 hlineto
          -123 -116 -122 -133 -70 vvcurveto
          -43 36 -33 43 40 27 117 279 270 vhcurveto
          104 94 1 1 19 hvcurveto
          22 8 7 10 10 -8 13 -9 11 hvcurveto
          22 -18 -82 0 -29 hhcurveto
          -49 hlineto
          24 36 16 26 2 7 -2 49 rcurveline
          11 -3 11 -12 vhcurveto
          0 -77 -61 -93 -83 vhcurveto
          -215 -11 -55 -27 -9 vvcurveto
          endchar
        </CharString>
        <CharString name="thorn">
          -31 13 callsubr
          355 -20 hstem
          -63 callgsubr
          210 361 1 16 rrcurveto
          4 callgsubr
          -623 -783 -33 callgsubr
        </CharString>
        <CharString name="three">
          224 -49 196 385 227 hstemhm
          15 101 -101 121 hintmask 11100000
          659 182 rmoveto
          84 -96 67 -110 11 vhcurveto
          -6 1 -8 5 4 vvcurveto
          20 callsubr
          0 vvcurveto
          1 2 0 3 1 vhcurveto
          38 7 250 104 119 vvcurveto
          -35 callgsubr
          -31 -155 -61 -80 -42 vhcurveto
          -48 -26 -38 -8 -20 vvcurveto
          -24 26 -6 25 vhcurveto
          37 21 10 46 hhcurveto
          14 13 -2 -5 2 hvcurveto
          -41 -235 -109 -81 -19 -10 5 13 vhcurveto
          hintmask 11010000
          16 20 20 17 vvcurveto
          14 -11 14 -16 1 vhcurveto
          -29 -65 -88 -80 -79 57 -49 141 246 200 140 91 hvcurveto
          endchar
        </CharString>
        <CharString name="threequarters">
          606 -51 -21 143 173 0 117 0 89 -29 112 53 142 hstemhm
          224 240 248 140 hintmask 11010111
          727 186 -78 callgsubr
          -263 196 -46 callsubr
          vhcurveto
          hintmask 11001111
          -29 37 -44 33 -1 vhcurveto
          -42 callgsubr
          hintmask 10101111
          -8 callsubr
          -15 callgsubr
          -254 -404 -74 callgsubr
        </CharString>
        <CharString name="threesuperior">
          19 244 117 -117 177 112 195 -142 142 hstemhm
          224 240 hintmask 10101000
          464 382 -46 callsubr
          -29 37 -44 33 -1 vhcurveto
          hintmask 10011000
          -42 callgsubr
          -8 callsubr
          hintmask 01101000
          -15 callgsubr
          endchar
        </CharString>
        <CharString name="tilde">
          353 7 callgsubr
          hintmask 10000000
          336 427 -63 callsubr
          hintmask 01000000
          -93 callsubr
        </CharString>
        <CharString name="trademark">
          487 210 -21 33 151 244 -20 hstemhm
          622 163 -163 204 hintmask 11101000
          381 289 rmoveto
          12 40 49 10 vvcurveto
          9 -5 4 -8 -26 -45 -98 -29 -11 3 -13 11 37 130 138 24 27 vhcurveto
          1 1 2 0 0 vvcurveto
          1 hlineto
          -5 -65 -91 -36 vvcurveto
          -8 16 -20 10 vhcurveto
          30 177 172 13 hhcurveto
          3 hlineto
          -7 callsubr
          -1 -2 vhcurveto
          -33 -25 -75 -85 -41 vvcurveto
          -22 11 -21 35 66 92 75 19 8 -6 2 -5 vhcurveto
          -11 -10 -16 -5 hhcurveto
          hintmask 11110000
          -1 -3 0 2 hvcurveto
          24 230 245 29 vvcurveto
          13 -15 18 -14 vhcurveto
          -24 -231 -182 -7 hhcurveto
          0 -1 1 1 4 41 78 18 vvcurveto
          8 -24 56 -23 -12 -100 -125 -84 -98 vhcurveto
          -57 -65 -51 -49 -6 hhcurveto
          -3 -1 1 2 hvcurveto
          233 256 rmoveto
          33 -54 21 -16 vhcurveto
          -89 -170 -58 -12 hhcurveto
          -4 0 1 2 hvcurveto
          3 30 14 12 vvcurveto
          7 -6 2 -6 -14 -85 -49 -32 -32 40 -31 41 28 44 10 5 22 vhcurveto
          -4 -3 -3 -4 -3 -1 -8 -8 -42 -43 -38 -43 rrcurveto
          0 -99 -105 -41 vvcurveto
          -12 11 -4 8 8 5 7 6 7 vhcurveto
          8 7 94 125 4 6 5 5 59 72 9 10 rrcurveto
          4 6 5 5 5 vvcurveto
          9 -13 3 -2 1 vhcurveto
          29 2 207 64 23 vvcurveto
          endchar
        </CharString>
        <CharString name="two">
          205 -28 246 -202 202 308 227 hstemhm
          hintmask 10100000
          704 582 rmoveto
          -35 callgsubr
          -151 -116 -470 -192 -117 -3 callgsubr
          hintmask 01100000
          -77 callgsubr
          95 74 69 31 rrcurveto
          0 281 127 109 vvcurveto
          endchar
        </CharString>
        <CharString name="twosuperior">
          9 253 153 -126 126 125 196 -136 136 hstemhm
          hintmask 10100000
          494 624 -11 callgsubr
          hintmask 10010000
          -25 callgsubr
          hintmask 01100000
          71 101 27 82 -58 callgsubr
          endchar
        </CharString>
        <CharString name="u">
          11 callsubr
          177 -20 19 callsubr
          vstem
          -107 callsubr
          endchar
        </CharString>
        <CharString name="uacute">
          11 callsubr
          363 -20 19 callsubr
          151 237 vstem
          -107 callsubr
          57 314 -100 callgsubr
        </CharString>
        <CharString name="ucircumflex">
          11 callsubr
          191 194 19 callsubr
          80 246 vstem
          -107 callsubr
          -10 169 -102 callgsubr
        </CharString>
        <CharString name="udieresis">
          11 callsubr
          220 145 19 callsubr
          vstem
          -107 callsubr
          -209 198 -106 callgsubr
        </CharString>
        <CharString name="ugrave">
          11 callsubr
          374 -20 hstemhm
          34 180 -23 218 -166 166 hintmask 11101000
          -107 callsubr
          -305 352 rmoveto
          hintmask 11010000
          -101 callsubr
        </CharString>
        <CharString name="underscore">
          97 -79 68 -48 -21 89 -21 hstemhm
          hintmask 10000000
          513 -79 rmoveto
          7 callsubr
          hintmask 01100000
          23 -23 6 -13 vhcurveto
          hintmask 10000000
          -22 -87 1 -49 callsubr
          hintmask 01100000
          -43 callsubr
          endchar
        </CharString>
        <CharString name="v">
          -155 -22 -21 392 -20 hstem
          -2 11 rmoveto
          -14 22 -40 33 9 11 4 11 13 vhcurveto
          91 82 234 232 97 19 rrcurveto
          4 1 1 2 2 vvcurveto
          11 -16 28 -17 -58 -200 -206 -16 -18 vhcurveto
          -6 -7 -5 -5 -5 21 callsubr
          2 3 29 58 73 2 29 hvcurveto
          15 -26 42 -34 -79 -105 -266 -32 vhcurveto
          endchar
        </CharString>
        <CharString name="w">
          95 -2 -21 384 -20 hstem
          233 240 vstem
          26 72 rmoveto
          -17 23 -35 19 9 14 6 15 24 vhcurveto
          54 34 94 68 11 6 rrcurveto
          1 3 1 1 2 hhcurveto
          2 20 callgsubr
          -18 -50 -43 -55 vvcurveto
          -30 19 -24 36 23 35 10 42 50 vhcurveto
          36 29 230 211 72 47 rrcurveto
          10 6 14 10 10 vvcurveto
          11 -15 8 -11 -21 -22 -19 -8 -11 vhcurveto
          -39 -28 -206 -189 -18 -12 rrcurveto
          -4 -7 -4 -2 -3 18 callgsubr
          3 2 6 4 6 hvcurveto
          7 12 62 84 51 vvcurveto
          20 -14 8 -18 -17 -19 -7 -12 -16 vhcurveto
          -36 -27 -66 -46 -12 -7 rrcurveto
          21 callgsubr
          -1 18 callgsubr
          19 68 54 1 21 hvcurveto
          15 -10 12 -1 7 vhcurveto
          6 5 10 7 vvcurveto
          9 -10 6 -10 1 vhcurveto
          -72 -212 -212 -77 hvcurveto
          endchar
        </CharString>
        <CharString name="x">
          -110 -5 -21 385 -20 hstem
          336 -12 rmoveto
          0 14 0 13 vvcurveto
          15 -39 62 -44 69 vhcurveto
          86 72 78 51 35 vvcurveto
          36 -54 2 0 -14 -80 -37 -53 -84 vhcurveto
          -27 43 -22 38 -8 21 rrcurveto
          3 -1 -1 1 -2 hhcurveto
          -6 -9 -18 -6 -17 17 -40 25 -46 hvcurveto
          -91 -61 -85 -77 -64 vvcurveto
          -20 27 -36 24 47 66 72 71 80 vhcurveto
          43 -68 44 -57 16 -4 rrcurveto
          endchar
        </CharString>
        <CharString name="y">
          -89 -259 -21 598 -20 hstem
          -97 callgsubr
          endchar
        </CharString>
        <CharString name="yacute">
          -89 -259 -21 774 -20 hstem
          364 237 vstem
          -97 callgsubr
          568 376 -100 callgsubr
        </CharString>
        <CharString name="ydieresis">
          -89 -259 -21 633 145 hstem
          -97 callgsubr
          288 262 -106 callgsubr
        </CharString>
        <CharString name="yen">
          89 -280 -21 167 80 34 66 -35 -21 518 175 hstemhm
          hintmask 11101000
          540 25 rmoveto
          0 -1 44 -18 vhcurveto
          0 -23 -19 -59 -4 vhcurveto
          159 186 220 241 31 36 -19 callgsubr
          -296 -161 13 callgsubr
          -4 -1 2 7 hvcurveto
          2 0 2 3 vvcurveto
          22 27 78 56 101 122 rrcurveto
          -47 callsubr
          -228 -150 -39 callgsubr
          -24 -22 -101 -111 -90 -101 -29 6 -33 8 -38 12 rrcurveto
          -12 -12 -8 -25 -2 hvcurveto
          -27 8 -15 13 -5 vhcurveto
          10 -3 18 -3 20 -4 -10 -11 -10 -12 -9 -10 rrcurveto
          hintmask 11011000
          -27 7 -32 10 -36 12 rrcurveto
          -12 -12 -9 -30 -2 hvcurveto
          -33 8 -18 13 -6 vhcurveto
          9 -2 13 -4 16 -3 rrcurveto
          -25 -35 -20 -35 -36 vvcurveto
          -24 23 -56 33 28 23 63 105 75 vhcurveto
          -1 9 9 0 9 hhcurveto
          71 62 2 52 5 hvcurveto
          0 -1 52 -18 vhcurveto
          0 -24 -22 -61 -4 vhcurveto
          hintmask 11101000
          9 11 9 11 10 12 rrcurveto
          19 hlineto
          71 62 2 43 5 hvcurveto
          endchar
        </CharString>
        <CharString name="z">
          -126 -2 -21 223 109 -109 178 hstemhm
          hintmask 11000000
          324 338 rmoveto
          -31 -70 -29 -21 hhcurveto
          -6 -3 2 3 5 34 21 15 9 hvcurveto
          10 7 3 4 5 vvcurveto
          hintmask 10100000
          7 -5 6 -7 -42 -98 -76 -45 -36 36 -21 30 vhcurveto
          28 37 16 7 hhcurveto
          3 1 -2 -3 -10 -52 -35 -20 -11 hvcurveto
          -21 -11 -132 -81 -36 vvcurveto
          -20 46 -30 19 34 118 46 6 73 vhcurveto
          29 2 15 15 18 vvcurveto
          40 -58 25 -32 -21 -18 -5 -2 -13 vhcurveto
          -6 -2 3 -17 callsubr
          3 3 3 hvcurveto
          6 7 105 78 34 33 rrcurveto
          22 21 7 14 11 vvcurveto
          25 -31 13 -27 vhcurveto
          endchar
        </CharString>
        <CharString name="zcaron">
          -126 -2 -21 52 100 71 109 246 -20 hstem
          324 338 rmoveto
          27 31 -13 -25 -11 -7 -14 -22 -21 hvcurveto
          -34 -33 -105 -78 -6 -7 rrcurveto
          -3 -3 -1 -3 -2 vvcurveto
          -3 2 -3 6 vhcurveto
          2 13 18 5 21 hhcurveto
          32 58 -25 -40 -18 -15 -15 -29 -2 hvcurveto
          -6 -73 -118 -46 -34 hhcurveto
          -19 -46 30 20 36 132 81 21 11 hvcurveto
          20 11 52 35 10 vvcurveto
          3 -1 2 -3 vhcurveto
          -7 -37 -16 -28 hhcurveto
          -30 -36 21 36 45 98 76 42 7 5 -6 -7 -5 -3 -4 -10 -7 hvcurveto
          -15 -9 -34 -21 -5 vvcurveto
          -3 3 -2 6 vhcurveto
          21 70 29 31 hhcurveto
          -133 178 -87 callsubr
        </CharString>
        <CharString name="zero">
          240 -56 118 551 136 hstem
          684 95 vstem
          669 692 rmoveto
          47 -32 -39 10 -39 hhcurveto
          -205 -348 -230 -308 -152 88 -115 87 264 334 512 178 30 -14 44 -43 -13 -17 -4 -12 -17 hvcurveto
          9 -104 rmoveto
          -144 -280 -382 -104 -19 -13 13 27 -4 vhcurveto
          3 vlineto
          211 210 297 187 vhcurveto
          0 23 -8 -17 vvcurveto
          endchar
        </CharString>
      <CharString index="0">
        rmoveto
        71 8 39 69 27 vvcurveto
        18 -8 23 -33 -24 -78 -25 -73 -7 vhcurveto
        0 2 -47 38 vhcurveto
        return
      </CharString>
      <CharString index="1">
        -107 callgsubr
        151 -8 -107 callgsubr
        endchar
      </CharString>
      <CharString index="2">
        rmoveto
        4 2 4 4 4 vhcurveto
        -70 callgsubr
        35 -46 10 -35 4 vhcurveto
        -61 callgsubr
        -98 callgsubr
        hvcurveto
        -175 -172 rmoveto
        62 119 88 15 return
      </CharString>
      <CharString index="3">
        -106 16 87 -40 103 hhcurveto
        182 236 123 100 41 -32 60 -50 2 hvcurveto
        1 -27 -170 -100 -154 hhcurveto
        -15 -17 5 15 28 184 79 95 43 hvcurveto
        -97 callsubr
        return
      </CharString>
      <CharString index="4">
        -32 29 -21 29 39 143 76 47 9 -10 8 -8 -5 -1 callgsubr
        vhcurveto
        -12 -8 -31 -22 -6 -3 rrcurveto
        -1 -1 -1 0 -1 21 callsubr
        3 4 2 -8 callgsubr
        2 hvcurveto
        23 37 143 217 4 62 rrcurveto
        4 1 -13 21 -24 hhcurveto
        -4 -4 -1 -1 -5 hvcurveto
        return
      </CharString>
      <CharString index="5">
        rmoveto
        15 6 20 28 57 -25 89 -21 -125 -86 -82 -81 callgsubr
        58 3 48 14 rrcurveto
        -37 8 15 -66 41 hhcurveto
        endchar
      </CharString>
      <CharString index="6">
        -18 24 -15 15 42 128 90 15 -85 callsubr
        -67 -51 -12 hhcurveto
        0 -7 1 6 vvcurveto
        12 17 30 27 29 vhcurveto
        24 26 29 27 20 vvcurveto
        9 -6 9 -9 vhcurveto
        return
      </CharString>
      <CharString index="7">
        rmoveto
        22 -10 -14 5 -25 hhcurveto
        -100 callsubr
      </CharString>
      <CharString index="8">
        -29 callsubr
        -103 callsubr
        return
      </CharString>
      <CharString index="9">
        101 64 100 91 50 hvcurveto
        7 3 4 4 7 hhcurveto
        -1 8 4 0 5 hhcurveto
        46 80 32 14 6 -5 9 -7 hvcurveto
        -5 -60 -30 -38 hhcurveto
        -18 -14 7 20 return
      </CharString>
      <CharString index="10">
        28 91 rmoveto
        -12 13 -59 39 vhcurveto
        50 57 48 11 hhcurveto
        2 2 -28 callsubr
        -32 -37 -142 -148 -10 -65 rrcurveto
        -2 -11 -1 -10 -8 vvcurveto
        -43 28 -15 14 11 21 6 38 25 vhcurveto
        91 136 249 291 66 vvcurveto
        7 -17 15 -7 -12 -18 -12 -7 -10 vhcurveto
        -11 -9 -137 -109 -21 -13 rrcurveto
        -3 -4 -4 -1 -3 hhcurveto
        -6 -2 4 6 4 1 5 2 3 hvcurveto
        6 9 58 66 6 6 rrcurveto
        6 6 8 2 20 vvcurveto
        26 -10 36 -16 -29 -202 -134 -93 vhcurveto
        return
      </CharString>
      <CharString index="11">
        -103 -174 -115 -154 -76 44 -58 44 132 167 257 89 15 -7 22 -21 -7 -8 -2 -6 -9 hvcurveto
        5 -52 rmoveto
        -72 -140 -192 -53 -9 -7 7 13 -2 vhcurveto
        2 vlineto
        105 106 149 93 vhcurveto
        0 12 -4 -8 vvcurveto
        return
      </CharString>
      <CharString index="12">
        -37 -47 -90 callsubr
        34 -56 callsubr
        return
      </CharString>
      <CharString index="13">
        23 -16 -19 5 -20 hhcurveto
        -96 callgsubr
        return
      </CharString>
      <CharString index="14">
        -68 -115 -98 -40 -8 5 -3 4 -2 hvcurveto
        0 69 38 31 5 vhcurveto
        return
      </CharString>
      <CharString index="15">
        -8 -21 1 10 19 159 57 19 6 5 12 callgsubr
        -19 -55 -8 -11 vvcurveto
        -7 11 -6 10 15 98 39 53 46 -47 20 -55 return
      </CharString>
      <CharString index="16">
        566 714 rmoveto
        -76 -198 -63 -62 hvcurveto
        -10 2 10 -4 9 17 68 48 22 hhcurveto
        3 2 21 callgsubr
        -3 -3 -2 hvcurveto
        -58 -58 -379 -276 -152 vvcurveto
        -47 25 -64 54 vhcurveto
        92 251 228 33 1 callgsubr
        15 callgsubr
        -3 -6 -4 -4 hvcurveto
        -79 -103 -8 -46 -1 -21 rrcurveto
        -55 6 31 -24 44 hhcurveto
        73 169 90 52 7 -5 4 -7 -26 -69 -55 -10 -22 hvcurveto
        -3 -5 -4 -1 -3 hhcurveto
        -4 -2 2 4 4 2 5 2 4 hvcurveto
        50 87 353 388 42 48 rrcurveto
        19 23 8 18 14 vvcurveto
        21 -18 11 -20 -14 -15 -5 -10 -11 vhcurveto
        -34 -30 -386 -288 -18 -14 rrcurveto
        -3 -4 -3 -1 -3 hhcurveto
        -6 -3 5 5 2 0 2 8 callgsubr
        54 61 59 66 rrcurveto
        35 40 33 59 48 vvcurveto
        44 -38 33 -49 vhcurveto
        return
      </CharString>
      <CharString index="17">
        hhcurveto
        -3 -1 10 callsubr
        4 4 5 hvcurveto
        13 19 260 297 22 42 rrcurveto
        16 32 23 65 38 vvcurveto
        16 -3 15 -16 -29 -53 -55 -8 -7 vhcurveto
        -8 -10 -321 -375 -29 -31 -171 -184 -144 -168 -20 -46 rrcurveto
        -8 -17 -4 -18 -16 vvcurveto
        -33 17 -28 32 109 301 177 168 17 -2 17 -6 15 vhcurveto
        0 return
      </CharString>
      <CharString index="18">
        -68 callgsubr
        -11 -57 -66 -27 vvcurveto
        -13 12 -15 21 18 7 19 3 3 vhcurveto
        return
      </CharString>
      <CharString index="19">
        -92 callgsubr
        -99 -168 -78 -79 vhcurveto
        return
      </CharString>
      <CharString index="20">
        -105 callsubr
        -78 callsubr
        return
      </CharString>
      <CharString index="21">
        0 128 6 54 vvcurveto
        6 -2 7 -3 8 vhcurveto
        endchar
      </CharString>
      <CharString index="22">
        27 9 109 133 31 hhcurveto
        4 4 -2 -7 hvcurveto
        -119 -2 -359 -370 -108 hhcurveto
        -19 -11 11 25 hvcurveto
        return
      </CharString>
      <CharString index="23">
        -79 callsubr
        vhcurveto
        return
      </CharString>
      <CharString index="24">
        -7 5 -5 7 64 102 99 62 1 vhcurveto
        53 -36 28 -53 -56 -4 -60 0 vhcurveto
        return
      </CharString>
      <CharString index="25">
        205 -74 callsubr
        245 655 rmoveto
        -94 callgsubr
        383 -241 rmoveto
        return
      </CharString>
      <CharString index="26">
        -40 -7 5 -2 6 8 11 4 0 hvcurveto
        36 19 return
      </CharString>
      <CharString index="27">
        rmoveto
        -26 51 -10 -16 vvcurveto
        -1 -22 -33 -40 -86 callsubr
        return
      </CharString>
      <CharString index="28">
        rmoveto
        -77 callsubr
        return
      </CharString>
      <CharString index="29">
        rmoveto
        -7 1 2 -3 3 hhcurveto
        21 165 131 128 108 hvcurveto
        4 4 7 5 7 hhcurveto
        7 29 -4 -17 3 hvcurveto
        -2 -26 -32 -38 -15 -23 -32 -46 -103 -154 -45 -80 rrcurveto
        -66 -36 -7 -40 -17 hhcurveto
        -26 -35 42 18 18 10 21 11 19 hvcurveto
        13 24 47 53 5 19 rrcurveto
        4 -1 0 -2 vhcurveto
        -7 -23 -106 -90 -71 hhcurveto
        -46 -27 48 31 hvcurveto
        60 168 130 47 vvcurveto
        57 22 -8 6 40 hhcurveto
        39 47 -24 -54 -45 -125 -141 0 hvcurveto
        return
      </CharString>
      <CharString index="30">
        118 169 44 137 30 19 -5 25 hhcurveto
        19 26 5 21 53 -95 128 -162 -49 -41 -9 -6 -28 hvcurveto
        -2 -1 -1 -1 hhcurveto
        -4 -15 -14 -2 -9 hhcurveto
        -7 -5 1 3 4 7 6 15 8 hvcurveto
        43 23 return
      </CharString>
      <CharString index="31">
        12 71 rmoveto
        -52 53 -60 46 109 452 588 47 30 -48 44 -39 -58 -515 -396 -201 vhcurveto
        return
      </CharString>
      <CharString index="32">
        rrcurveto
        3 -41 -37 1 -21 hhcurveto
        -330 -119 -121 -124 -60 49 -58 75 98 97 59 84 94 hvcurveto
        -3 198 104 -30 154 hhcurveto
        30 20 1 34 141 -167 50 -140 17 hvcurveto
        return
      </CharString>
      <CharString index="33">
        rmoveto
        0 548 695 13 18 vhcurveto
        14 10 15 20 20 hhcurveto
        13 16 -10 -15 -30 -550 -686 -33 -40 hvcurveto
        -5 -4 -14 -11 -14 hhcurveto
        -16 -10 19 12 8 3 7 3 4 hvcurveto
        endchar
      </CharString>
      <CharString index="34">
        hhcurveto
        -219 -423 -239 -308 -132 71 -52 65 return
      </CharString>
      <CharString index="35">
        -80 callgsubr
        172 22 -16 callgsubr
        hintmask 01000000
        -83 callgsubr
        endchar
      </CharString>
      <CharString index="36">
        -59 callsubr
        -43 callsubr
        return
      </CharString>
      <CharString index="37">
        6 3 9 -1 6 8 rrcurveto
        3 5 5 9 10 vvcurveto
        return
      </CharString>
      <CharString index="38">
        105 0 108 -98 -21 485 216 -127 127 return
      </CharString>
      <CharString index="39">
        110 292 305 43 2 1 -1 -2 vhcurveto
        return
      </CharString>
      <CharString index="40">
        -262 -367 -259 -275 -81 46 -75 82 return
      </CharString>
      <CharString index="41">
        464 715 rmoveto
        -217 -250 -194 -261 -177 128 -131 185 232 231 210 245 179 -140 129 -169 hvcurveto
        -22 -72 rmoveto
        140 114 -99 -149 -199 -184 -172 -188 -148 -102 105 143 205 194 166 174 hvcurveto
        return
      </CharString>
      <CharString index="42">
        964 396 rmoveto
        232 -179 81 -195 -236 -260 -119 -114 vhcurveto
        -77 8 47 -50 76 hhcurveto
        38 104 23 26 9 -9 2 -9 -20 -31 -9 -1 -17 hvcurveto
        -2 -2 -8 callgsubr
        hvcurveto
        66 48 245 50 163 hhcurveto
        86 64 -14 -33 -91 -374 -199 -225 hvcurveto
        return
      </CharString>
      <CharString index="43">
        -5 -6 2 6 hvcurveto
        40 147 101 58 vvcurveto
        25 -42 17 -14 -7 -8 -2 -6 -10 vhcurveto
        -14 -8 -174 -114 -7 -5 rrcurveto
        -22 callsubr
        hhcurveto
        -2 -2 2 2 1 0 2 8 callgsubr
        56 61 30 vvcurveto
        40 -19 18 -18 2 vhcurveto
        -53 -213 -199 -54 hvcurveto
        return
      </CharString>
      <CharString index="44">
        -182 -294 rmoveto
        -33 21 -39 36 43 41 57 22 14 vhcurveto
        191 316 1 1 0 vvcurveto
        4 3 1 4 4 10 12 -44 51 hhcurveto
        110 137 181 71 10 hvcurveto
        61 -37 11 -34 vhcurveto
        -56 -72 -88 -21 21 callsubr
        2 -17 callsubr
        3 2 4 hvcurveto
        8 20 return
      </CharString>
      <CharString index="45">
        rmoveto
        22 -10 -14 5 -25 hhcurveto
        return
      </CharString>
      <CharString index="46">
        -91 -168 -103 -153 -72 38 -26 42 return
      </CharString>
      <CharString index="47">
        -20 hstem
        184 149 rmoveto
        27 21 87 37 5 13 rrcurveto
        1 3 1 9 11 vvcurveto
        31 -6 48 -13 -20 -159 -138 -20 -2 vhcurveto
        -1 vlineto
        -46 8 112 -116 25 hhcurveto
        10 2 2 29 22 vvcurveto
        34 -12 14 -66 47 vhcurveto
        return
      </CharString>
      <CharString index="48">
        -20 -12 -29 -11 -10 -6 rrcurveto
        -5 -3 -4 -5 -4 vvcurveto
        -5 3 -2 8 18 108 37 51 1 vhcurveto
        51 -48 20 -60 return
      </CharString>
      <CharString index="49">
        18 12 -3 15 hhcurveto
        11 16 3 12 32 -57 82 -98 -29 -25 -6 -3 -16 hvcurveto
        -2 0 -1 -1 hhcurveto
        -2 -9 -8 -1 -6 hhcurveto
        -4 -3 0 2 2 4 4 9 5 hvcurveto
        93 50 55 31 103 73 rrcurveto
        25 18 17 25 21 vvcurveto
        return
      </CharString>
      <CharString index="50">
        11 -4 8 -10 vhcurveto
        -3 -18 -132 -135 -54 hhcurveto
        -6 -3 3 7 54 135 67 88 24 hvcurveto
        20 5 8 9 10 vvcurveto
        37 -61 23 -25 -201 -114 -184 -49 -26 18 -52 60 34 60 37 0 vhcurveto
        endchar
      </CharString>
      <CharString index="51">
        -39 -43 rrcurveto
        -7 -6 -1 -2 -5 vvcurveto
        return
      </CharString>
      <CharString index="52">
        rmoveto
        4 3 -3 -7 hvcurveto
        -137 -1 -179 -121 -25 hhcurveto
        -9 -8 1 8 24 204 235 11 hvcurveto
        return
      </CharString>
      <CharString index="53">
        28 -16 6 -18 vhcurveto
        -17 -19 -5 -13 hhcurveto
        return
      </CharString>
      <CharString index="54">
        547 rmoveto
        6 5 -1 -5 -3 -1 -4 -4 -5 hvcurveto
        -18 -25 -38 -36 -9 -10 rrcurveto
        -6 -7 -8 -16 -11 vvcurveto
        -11 10 -4 16 46 112 106 81 50 -44 41 -130 -207 -385 -152 -349 return
      </CharString>
      <CharString index="55">
        -21 35 -16 -11 vvcurveto
        -5 -4 0 -5 -15 -31 9 4 -9 vhcurveto
        3 -8 -9 2 -7 hhcurveto
        -11 -4 -6 -10 -15 12 -31 12 -6 hvcurveto
        -7 12 33 -10 29 hhcurveto
        39 17 23 23 15 -7 16 -14 9 hvcurveto
        return
      </CharString>
      <CharString index="56">
        -23 -154 -112 -61 hhcurveto
        return
      </CharString>
      <CharString index="57">
        rmoveto
        -26 -21 -86 -39 -7 -12 rrcurveto
        -19 1 -82 15 vhcurveto
        23 5 160 134 20 vvcurveto
        1 vlineto
        46 -9 -111 115 -27 hhcurveto
        -9 -2 -2 -32 -23 vvcurveto
        -29 14 -17 64 -45 vhcurveto
        endchar
      </CharString>
      <CharString index="58">
        -75 36 -26 51 122 207 152 8 1 vhcurveto
        1 0 0 1 vvcurveto
        6 -6 6 -8 vhcurveto
        return
      </CharString>
      <CharString index="59">
        -27 callsubr
        -54 callgsubr
        return
      </CharString>
      <CharString index="60">
        -9 11 -4 7 25 98 77 65 vhcurveto
        return
      </CharString>
      <CharString index="61">
        65 -106 40 -32 vhcurveto
        -173 -330 -114 -27 hhcurveto
        -5 -2 3 -17 callsubr
        2 3 1 hvcurveto
        13 6 43 32 14 vvcurveto
        13 -11 5 -13 -28 -165 -97 -61 -64 78 -59 79 return
      </CharString>
      <CharString index="62">
        -204 -314 -127 -129 -26 16 return
      </CharString>
      <CharString index="63">
        118 81 rmoveto
        -26 34 -26 -9 callsubr
        -16 -24 -86 callsubr
        return
      </CharString>
      <CharString index="64">
        -54 callgsubr
        -92 callgsubr
        return
      </CharString>
      <CharString index="65">
        -1 15 75 54 92 hhcurveto
        9 11 -3 -9 3 hvcurveto
        -18 -83 -31 -48 -25 vhcurveto
        -29 -16 -23 -5 -12 vvcurveto
        -14 16 -4 15 vhcurveto
        10 30 6 19 hhcurveto
        8 6 -1 -3 1 hvcurveto
        return
      </CharString>
      <CharString index="66">
        355 -38 callsubr
        -37 callgsubr
        return
      </CharString>
      <CharString index="67">
        -66 callsubr
        hintmask 01100000
        -31 callgsubr
        hintmask 10100000
        -9 callgsubr
        vhcurveto
        return
      </CharString>
      <CharString index="68">
        -34 -76 rrcurveto
        -8 -17 -6 -23 -24 vvcurveto
        -43 28 -63 65 95 223 158 37 57 vhcurveto
        6 9 12 9 7 hhcurveto
        2 0 -1 -1 -2 -2 -4 -4 -5 hvcurveto
        return
      </CharString>
      <CharString index="69">
        rmoveto
        53 136 19 87 6 vhcurveto
        -50 -68 -71 -33 -75 hhcurveto
        -4 -5 1 4 hvcurveto
        return
      </CharString>
      <CharString index="70">
        7 -5 5 -7 -64 -102 -99 -62 -1 vhcurveto
        -53 36 -28 53 56 4 60 0 vhcurveto
        return
      </CharString>
      <CharString index="71">
        -10 -30 1 8 21 133 41 41 4 5 -1 -3 -3 -2 -2 -7 -5 return
      </CharString>
      <CharString index="72">
        122 -164 49 -88 -170 -186 -107 -96 -48 62 -73 54 -2 vhcurveto
        -1 26 142 100 153 hhcurveto
        15 18 -5 -15 5 hvcurveto
        return
      </CharString>
      <CharString index="73">
        97 239 143 19 1 return
      </CharString>
      <CharString index="74">
        -170 vvcurveto
        566 544 rmoveto
        3 5 -2 -4 -37 -137 -135 -53 -2 -2 0 2 26 152 150 34 hvcurveto
        endchar
      </CharString>
      <CharString index="75">
        118 -49 227 385 196 return
      </CharString>
      <CharString index="76">
        36 435 1 0 hvcurveto
        7 callsubr
        return
      </CharString>
      <CharString index="77">
        -17 -21 37 59 234 59 -17 68 225 68 30 -20 hstemhm
        118 -2 callgsubr
        4 -2 callgsubr
        return
      </CharString>
      <CharString index="78">
        -121 -22 68 133 31 return
      </CharString>
      <CharString index="79">
        -23 callsubr
        vvcurveto
        return
      </CharString>
      <CharString index="80">
        hstemhm
        41 138 -80 101 -45 45 return
      </CharString>
      <CharString index="81">
        6 21 11 27 return
      </CharString>
      <CharString index="82">
        16 85 60 92 hhcurveto
        9 10 -3 -9 3 hvcurveto
        -90 -70 -282 -115 -70 vvcurveto
        -39 42 -32 36 vhcurveto
        return
      </CharString>
      <CharString index="83">
        -26 rmoveto
        61 173 226 33 10 -2 43 -43 hvcurveto
        return
      </CharString>
      <CharString index="84">
        16 24 24 20 8 3 -5 -6 -26 -41 -13 0 vhcurveto
        return
      </CharString>
      <CharString index="85">
        0 3 -76 58 vhcurveto
        return
      </CharString>
      <CharString index="86">
        30 71 105 54 34 6 -4 5 -9 4 vhcurveto
        -16 -62 -43 -17 hhcurveto
        -1 -1 1 3 -1 hvcurveto
        return
      </CharString>
      <CharString index="87">
        hstemhm
        36 245 499 103 return
      </CharString>
      <CharString index="88">
        rrcurveto
        30 36 64 62 31 vvcurveto
        29 -18 6 -12 -12 -13 -7 -8 -8 vhcurveto
        -206 -216 return
      </CharString>
      <CharString index="89">
        -48 13 rrcurveto
        2 -5 -6 1 -6 hhcurveto
        -14 -15 -8 -24 -16 12 -9 4 -3 hvcurveto
        endchar
      </CharString>
      <CharString index="90">
        rmoveto
        -84 callgsubr
        return
      </CharString>
      <CharString index="91">
        rmoveto
        -26 51 -10 -9 callsubr
        -33 -40 -56 callgsubr
        return
      </CharString>
      <CharString index="92">
        8 -16 9 -9 -18 -39 -53 -48 -47 34 -29 85 148 130 84 54 vhcurveto
        return
      </CharString>
      <CharString index="93">
        rmoveto
        214 hlineto
        16 callsubr
        hvcurveto
        -35 -49 -2 -65 hhcurveto
        return
      </CharString>
      <CharString index="94">
        -3 -13 -12 hvcurveto
        -59 callsubr
        return
      </CharString>
      <CharString index="95">
        24 -21 4 vhcurveto
        -5 hlineto
        return
      </CharString>
      <CharString index="96">
        rmoveto
        73 -98 30 -53 -102 -112 -64 -58 -29 38 -44 32 -1 vhcurveto
        return
      </CharString>
      <CharString index="97">
        -2 -51 callsubr
        8 -19 10 9 9 11 5 3 vhcurveto
        return
      </CharString>
      <CharString index="98">
        27 -21 5 -61 return
      </CharString>
      <CharString index="99">
        0 1 1 return
      </CharString>
      <CharString index="100">
        vvcurveto
        -41 19 -11 15 vhcurveto
        2 1 0 2 hhcurveto
        80 -45 232 return
      </CharString>
      <CharString index="101">
        6 -2 -6 2 -7 -24 -47 -25 -20 hhcurveto
        -4 -2 1 2 return
      </CharString>
      <CharString index="102">
        210 60 rmoveto
        9 14 16 7 6 1 callgsubr
        -1 -1 return
      </CharString>
      <CharString index="103">
        rmoveto
        0 0 37 -44 vhcurveto
        -81 -8 return
      </CharString>
      <CharString index="104">
        vvcurveto
        -65 70 -44 60 vhcurveto
        return
      </CharString>
      <CharString index="105">
        129 211 47 return
      </CharString>
      <CharString index="106">
        -6 -2 -5 -6 return
      </CharString>
      <CharString index="107">
        137 -18 246 -202 202 181 216 return
      </CharString>
      <CharString index="108">
        hhcurveto
        2 1 return
      </CharString>
      <CharString index="109">
        10 callgsubr
        547 -13 callsubr
        return
      </CharString>
      <CharString index="110">
        -20 -31 callsubr
        return
      </CharString>
      <CharString index="111">
        11 -9 21 -17 -9 -11 -2 -12 -13 vhcurveto
        0 return
      </CharString>
      <CharString index="112">
        -64 -53 46 -26 47 5 5 0 1 15 vhcurveto
        return
      </CharString>
      <CharString index="113">
        hvcurveto
        1 -7 -5 0 -5 hhcurveto
        -17 -26 -9 -28 return
      </CharString>
      <CharString index="114">
        77 -77 133 hstemhm
        return
      </CharString>
      <CharString index="115">
        2 2 hvcurveto
        6 6 return
      </CharString>
      <CharString index="116">
        355 -38 217 -217 250 -12 return
      </CharString>
      <CharString index="117">
        hstemhm
        -21 159 return
      </CharString>
      <CharString index="118">
        205 0 -21 return
      </CharString>
      <CharString index="119">
        -2 -3 hvcurveto
        return
      </CharString>
      <CharString index="120">
        -22 -12 rrcurveto
        -5 -8 -5 -2 -4 hhcurveto
        return
      </CharString>
      <CharString index="121">
        -4 62 -62 174 345 80 hstemhm
        return
      </CharString>
      <CharString index="122">
        -1 -2 -3 return
      </CharString>
      <CharString index="123">
        60 107 193 hstemhm
        884 80 return
      </CharString>
      <CharString index="124">
        -77 227 329 140 hstemhm
        return
      </CharString>
      <CharString index="125">
        hhcurveto
        -2 -1 1 2 return
      </CharString>
      <CharString index="126">
        -2 -2 -2 -3 -3 return
      </CharString>
      <CharString index="127">
        1 -2 -2 hvcurveto
        return
      </CharString>
      <CharString index="128">
        -1 -7 callsubr
        return
      </CharString>
</ttFont>
